<?xml version="1.0" encoding="UTF-8"?>
<svg xmlns="http://www.w3.org/2000/svg" xmlns:xlink="http://www.w3.org/1999/xlink" width="112px" height="92px" viewBox="0 0 112 92" version="1.1">
<g id="surface1">
<path style=" stroke:none;fill-rule:nonzero;fill:rgb(100%,100%,80.392157%);fill-opacity:1;" d="M 65.148438 92.246094 C 43.429688 92.246094 21.808594 92.246094 0.1875 92.246094 C 0.1875 61.582031 0.1875 30.914062 0.1875 0.246094 C 37.519531 0.246094 74.851562 0.246094 112.1875 0.246094 C 112.1875 30.914062 112.1875 61.582031 112.1875 92.246094 C 96.539062 92.246094 80.890625 92.246094 65.148438 92.246094 M 97.976562 42.53125 C 97.992188 42.457031 98.007812 42.382812 98.148438 42.253906 C 98.34375 41.925781 98.683594 41.613281 98.707031 41.269531 C 98.808594 39.710938 98.058594 38.757812 96.835938 38.671875 C 94.855469 36.625 92.988281 34.511719 92.117188 31.171875 C 91.46875 28.691406 90.113281 26.847656 88.351562 25.605469 C 86.910156 24.589844 85.679688 23.289062 84.65625 21.578125 C 83.613281 19.84375 82.421875 18.269531 81.316406 16.601562 C 80.667969 15.625 79.859375 15.285156 78.976562 15.707031 C 78.09375 16.128906 77.769531 17.105469 77.800781 18.363281 C 77.84375 20.296875 77.859375 22.234375 77.78125 24.164062 C 77.757812 24.769531 77.507812 25.523438 77.164062 25.910156 C 75.320312 27.976562 73.402344 29.929688 71.535156 31.960938 C 70.132812 33.484375 68.695312 34.882812 66.660156 35.128906 C 66.28125 35.140625 65.90625 35.148438 65.386719 35.125 C 65.050781 35.066406 64.71875 35.007812 64.253906 34.890625 C 64.121094 34.898438 63.984375 34.90625 63.699219 34.878906 C 63.449219 34.867188 63.199219 34.859375 62.871094 34.75 C 62.761719 34.734375 62.65625 34.71875 62.394531 34.648438 C 61.871094 34.589844 61.351562 34.527344 60.703125 34.40625 C 60.570312 34.410156 60.4375 34.414062 60.15625 34.382812 C 59.824219 34.328125 59.488281 34.269531 59.015625 34.15625 C 58.820312 34.164062 58.628906 34.167969 58.277344 34.136719 C 57.480469 34.042969 56.683594 33.945312 55.785156 33.738281 C 55.609375 33.71875 55.4375 33.699219 55.113281 33.640625 C 54.714844 33.59375 54.316406 33.546875 53.796875 33.433594 C 53.660156 33.433594 53.527344 33.433594 53.246094 33.398438 C 52.851562 33.332031 52.460938 33.265625 51.9375 33.15625 C 51.800781 33.164062 51.664062 33.171875 51.386719 33.148438 C 51.109375 33.113281 50.828125 33.074219 50.449219 32.960938 C 50.375 32.960938 50.300781 32.957031 50.066406 32.910156 C 49.546875 32.855469 49.027344 32.800781 48.371094 32.679688 C 48.179688 32.683594 47.988281 32.683594 47.628906 32.652344 C 45.6875 32.664062 43.746094 32.675781 41.664062 32.65625 C 41.441406 32.726562 41.21875 32.792969 40.835938 32.847656 C 40.222656 32.945312 39.605469 33.011719 38.996094 33.144531 C 34.316406 34.140625 30.414062 37.074219 27.589844 42.058594 C 26.066406 44.75 25.003906 47.925781 23.867188 50.96875 C 22.355469 55.015625 20.699219 58.878906 18.03125 61.828125 C 16.394531 63.640625 14.554688 64.957031 12.566406 65.945312 C 11.507812 66.464844 11.269531 67.515625 12.089844 68.289062 C 14.171875 70.257812 16.441406 71.722656 19.074219 72.355469 C 19.183594 72.378906 19.296875 72.398438 19.558594 72.457031 C 20.605469 72.601562 21.652344 72.90625 22.691406 72.863281 C 26.074219 72.71875 28.984375 70.878906 31.558594 68.101562 C 32.789062 66.777344 33.898438 65.257812 35.125 63.742188 C 35.125 66.382812 35.125 68.933594 35.105469 71.640625 C 35.117188 71.742188 35.128906 71.847656 35.164062 72.148438 C 35.335938 73.738281 35.511719 75.328125 35.675781 77.039062 C 35.675781 77.039062 35.707031 77.148438 35.722656 77.332031 C 35.914062 79.242188 36.578125 80.625 38.269531 81.089844 C 38.796875 81.097656 39.324219 81.136719 39.851562 81.109375 C 40.890625 81.054688 41.929688 80.964844 43.105469 80.847656 C 43.238281 80.464844 43.46875 80.085938 43.484375 79.695312 C 43.523438 78.601562 43.472656 77.503906 43.472656 76.265625 C 43.417969 76.148438 43.363281 76.03125 43.300781 75.738281 C 43.121094 75.359375 43.003906 74.769531 42.75 74.640625 C 41.386719 73.953125 41.625 72.464844 41.628906 71.070312 C 41.632812 69.878906 41.589844 68.679688 41.648438 67.492188 C 41.671875 67.015625 41.824219 66.441406 42.070312 66.109375 C 43.976562 63.515625 45.914062 60.957031 47.871094 58.433594 C 48.085938 58.15625 48.519531 57.980469 48.8125 58.050781 C 50.207031 58.390625 51.585938 58.84375 52.972656 59.234375 C 55.773438 60.03125 58.578125 60.8125 61.453125 61.710938 C 61.558594 61.734375 61.667969 61.757812 61.921875 61.828125 C 62.683594 62.074219 63.449219 62.324219 64.214844 62.804688 C 64.230469 65.765625 64.25 68.730469 64.289062 71.894531 C 64.460938 73.40625 64.632812 74.917969 64.785156 76.585938 C 64.800781 76.6875 64.816406 76.792969 64.847656 77.082031 C 65.023438 78.957031 65.496094 80.523438 67.246094 81.039062 C 68.859375 80.988281 70.476562 80.941406 72.226562 80.863281 C 72.367188 80.527344 72.601562 80.199219 72.621094 79.855469 C 72.671875 78.832031 72.65625 77.804688 72.628906 76.777344 C 72.601562 75.570312 72.15625 74.636719 71.351562 74.113281 C 70.84375 73.78125 70.734375 73.347656 70.742188 72.664062 C 70.765625 69.824219 70.78125 66.988281 70.734375 64.148438 C 70.71875 63.3125 70.960938 62.90625 71.464844 62.523438 C 74.089844 60.519531 76.644531 58.34375 79.328125 56.492188 C 82.320312 54.425781 84.675781 51.632812 86.101562 47.5625 C 86.613281 46.09375 87.265625 45.140625 88.683594 45.894531 C 88.800781 45.914062 88.914062 45.933594 89.164062 45.992188 C 89.34375 46.003906 89.527344 46.019531 89.792969 46.152344 C 89.910156 46.171875 90.03125 46.1875 90.28125 46.242188 C 90.460938 46.253906 90.636719 46.265625 90.882812 46.378906 C 90.949219 46.394531 91.015625 46.40625 91.246094 46.46875 C 91.757812 46.453125 92.273438 46.433594 92.863281 46.429688 C 92.863281 46.429688 92.9375 46.378906 93.078125 46.363281 C 94.25 45.808594 95.46875 45.382812 96.566406 44.644531 C 97.128906 44.269531 97.46875 43.328125 97.910156 42.625 C 97.910156 42.625 97.910156 42.609375 97.976562 42.53125 M 81.25 71.789062 C 79.035156 68.839844 76.824219 65.886719 74.609375 62.9375 C 74.148438 62.324219 73.597656 61.957031 73.0625 62.660156 C 72.542969 63.339844 72.75 64.078125 73.226562 64.710938 C 75.621094 67.890625 78 71.085938 80.414062 74.238281 C 81.558594 75.734375 83.164062 75.507812 84.125 73.8125 C 85.308594 71.71875 85.199219 69.078125 83.835938 67.179688 C 82.140625 64.824219 80.433594 62.488281 78.738281 60.136719 C 78.296875 59.523438 77.84375 59.003906 77.242188 59.761719 C 76.640625 60.523438 76.90625 61.199219 77.402344 61.875 C 79.027344 64.089844 80.648438 66.304688 82.230469 68.574219 C 82.59375 69.09375 82.996094 69.824219 82.996094 70.460938 C 82.996094 71.179688 82.566406 71.898438 82.320312 72.617188 C 81.996094 72.382812 81.667969 72.148438 81.25 71.789062 M 45.316406 64.867188 C 45.023438 65.378906 44.496094 65.882812 44.480469 66.410156 C 44.394531 69.125 44.402344 71.851562 44.476562 74.566406 C 44.488281 75.082031 44.875 75.828125 45.230469 76.035156 C 46.414062 76.71875 46.519531 76.859375 46.148438 78.640625 C 45.855469 78.640625 45.546875 78.648438 45.238281 78.636719 C 44.644531 78.621094 44.269531 78.996094 44.25 79.785156 C 44.230469 80.628906 44.628906 81.03125 45.234375 81.113281 C 48.074219 81.507812 48.609375 80.785156 48.265625 77.023438 C 48.25 76.859375 48.25 76.671875 48.183594 76.542969 C 47.773438 75.71875 47.4375 74.773438 46.894531 74.136719 C 46.507812 73.675781 46.300781 73.328125 46.3125 72.644531 C 46.335938 70.585938 46.300781 68.523438 46.328125 66.464844 C 46.339844 65.59375 46.113281 65.039062 45.316406 64.867188 Z M 45.316406 64.867188 "/>
<path style=" stroke:none;fill-rule:nonzero;fill:rgb(30.588235%,57.254902%,81.568627%);fill-opacity:1;" d="M 64.804688 76.429688 C 64.632812 74.917969 64.460938 73.40625 64.320312 71.710938 C 64.367188 68.761719 64.386719 65.996094 64.390625 63.230469 C 64.390625 63.011719 64.273438 62.792969 64.210938 62.574219 C 63.449219 62.324219 62.683594 62.074219 61.808594 61.75 C 61.59375 61.648438 61.484375 61.625 61.378906 61.597656 C 58.578125 60.8125 55.773438 60.03125 52.972656 59.234375 C 51.585938 58.84375 50.207031 58.390625 48.8125 58.050781 C 48.519531 57.980469 48.085938 58.15625 47.871094 58.433594 C 45.914062 60.957031 43.976562 63.515625 42.070312 66.109375 C 41.824219 66.441406 41.671875 67.015625 41.648438 67.492188 C 41.589844 68.679688 41.632812 69.878906 41.628906 71.070312 C 41.625 72.464844 41.386719 73.953125 42.75 74.640625 C 43.003906 74.769531 43.121094 75.359375 43.308594 75.894531 C 43.363281 76.171875 43.410156 76.289062 43.457031 76.410156 C 43.472656 77.503906 43.523438 78.601562 43.484375 79.695312 C 43.46875 80.085938 43.238281 80.464844 42.945312 80.863281 C 41.226562 80.929688 39.664062 80.980469 38.101562 81.03125 C 36.578125 80.625 35.914062 79.242188 35.734375 77.214844 C 35.769531 77.015625 35.75 76.957031 35.6875 76.921875 C 35.511719 75.328125 35.335938 73.738281 35.183594 72.011719 C 35.179688 71.742188 35.152344 71.613281 35.125 71.484375 C 35.125 68.933594 35.125 66.382812 35.125 63.742188 C 33.898438 65.257812 32.789062 66.777344 31.558594 68.101562 C 28.984375 70.878906 26.074219 72.71875 22.691406 72.863281 C 21.652344 72.90625 20.605469 72.601562 19.445312 72.386719 C 19.222656 72.285156 19.117188 72.257812 19.011719 72.234375 C 16.441406 71.722656 14.171875 70.257812 12.089844 68.289062 C 11.269531 67.515625 11.507812 66.464844 12.566406 65.945312 C 14.554688 64.957031 16.394531 63.640625 18.03125 61.828125 C 20.699219 58.878906 22.355469 55.015625 23.867188 50.96875 C 25.003906 47.925781 26.066406 44.75 27.589844 42.058594 C 30.414062 37.074219 34.316406 34.140625 38.996094 33.144531 C 39.605469 33.011719 40.222656 32.945312 40.988281 32.863281 C 41.363281 32.816406 41.582031 32.75 41.804688 32.6875 C 43.746094 32.675781 45.6875 32.664062 47.75 32.722656 C 48.085938 32.777344 48.296875 32.761719 48.507812 32.746094 C 49.027344 32.800781 49.546875 32.855469 50.171875 32.972656 C 50.363281 33.035156 50.457031 33.039062 50.546875 33.039062 C 50.828125 33.074219 51.109375 33.113281 51.492188 33.214844 C 51.753906 33.257812 51.910156 33.230469 52.066406 33.203125 C 52.460938 33.265625 52.851562 33.332031 53.355469 33.464844 C 53.613281 33.519531 53.765625 33.511719 53.917969 33.5 C 54.316406 33.546875 54.714844 33.59375 55.238281 33.71875 C 55.535156 33.8125 55.710938 33.832031 55.886719 33.851562 C 56.683594 33.945312 57.480469 34.042969 58.398438 34.207031 C 58.730469 34.253906 58.941406 34.234375 59.152344 34.210938 C 59.488281 34.269531 59.824219 34.328125 60.261719 34.449219 C 60.523438 34.5 60.675781 34.484375 60.832031 34.46875 C 61.351562 34.527344 61.871094 34.589844 62.511719 34.722656 C 62.738281 34.8125 62.84375 34.832031 62.949219 34.851562 C 63.199219 34.859375 63.449219 34.867188 63.808594 34.945312 C 64.074219 34.992188 64.230469 34.96875 64.382812 34.949219 C 64.71875 35.007812 65.050781 35.066406 65.511719 35.203125 C 66.027344 35.238281 66.421875 35.199219 66.816406 35.160156 C 68.695312 34.882812 70.132812 33.484375 71.535156 31.960938 C 73.402344 29.929688 75.320312 27.976562 77.164062 25.910156 C 77.507812 25.523438 77.757812 24.769531 77.78125 24.164062 C 77.859375 22.234375 77.84375 20.296875 77.800781 18.363281 C 77.769531 17.105469 78.09375 16.128906 78.976562 15.707031 C 79.859375 15.285156 80.667969 15.625 81.316406 16.601562 C 82.421875 18.269531 83.613281 19.84375 84.65625 21.578125 C 85.679688 23.289062 86.910156 24.589844 88.351562 25.605469 C 90.113281 26.847656 91.46875 28.691406 92.117188 31.171875 C 92.988281 34.511719 94.855469 36.625 96.820312 38.816406 C 96.210938 39.246094 95.613281 39.53125 94.957031 39.789062 C 93.453125 38.125 91.765625 36.777344 91.128906 34.164062 C 90.960938 33.46875 90.664062 32.828125 90.429688 32.15625 C 89.753906 30.191406 88.730469 28.652344 87.265625 27.648438 C 85.621094 26.515625 84.277344 24.925781 83.101562 23.023438 C 82.066406 21.347656 80.914062 19.796875 79.777344 18.144531 C 79.734375 18.414062 79.707031 18.609375 79.628906 18.886719 C 79.566406 21.480469 79.546875 23.992188 79.503906 26.574219 C 77.355469 28.910156 75.261719 31.214844 73.105469 33.414062 C 71.890625 34.65625 70.644531 35.90625 69.28125 36.8125 C 67.441406 38.035156 65.429688 37.714844 63.402344 37.242188 C 63.113281 37.164062 62.875 37.144531 62.574219 37.136719 C 62.304688 37.144531 62.09375 37.144531 61.910156 37.144531 C 62.273438 38.007812 62.628906 38.816406 63.539062 38.507812 C 64.296875 38.25 64.554688 38.769531 64.53125 39.851562 C 64.515625 40.414062 64.761719 41.152344 65.082031 41.527344 C 65.65625 42.203125 65.726562 42.855469 65.046875 43.394531 C 64.484375 43.84375 64.332031 44.421875 64.480469 45.25 C 64.644531 46.167969 64.21875 46.550781 63.496094 46.511719 C 63.070312 46.492188 62.515625 46.769531 62.210938 47.171875 C 61.667969 47.902344 61.253906 47.980469 60.785156 47.109375 C 60.445312 46.480469 60.070312 46.214844 59.457031 46.460938 C 58.765625 46.738281 58.347656 46.144531 58.527344 45.183594 C 58.683594 44.347656 58.503906 43.777344 57.957031 43.335938 C 57.308594 42.808594 57.289062 42.101562 57.929688 41.613281 C 58.503906 41.179688 58.679688 40.625 58.527344 39.785156 C 58.359375 38.851562 58.78125 38.246094 59.453125 38.46875 C 60.34375 38.765625 60.777344 38.246094 61.007812 37.019531 C 60.488281 36.9375 60.011719 36.863281 59.492188 36.738281 C 59.339844 36.667969 59.230469 36.648438 59.046875 36.632812 C 58.726562 36.609375 58.480469 36.585938 58.199219 36.511719 C 58.007812 36.484375 57.851562 36.507812 57.621094 36.527344 C 57.21875 36.453125 56.882812 36.382812 56.496094 36.253906 C 56.199219 36.171875 55.957031 36.152344 55.636719 36.152344 C 55.207031 36.132812 54.851562 36.097656 54.449219 36.007812 C 54.230469 35.929688 54.058594 35.910156 53.804688 35.886719 C 52.921875 35.78125 52.125 35.675781 51.285156 35.519531 C 51.03125 35.488281 50.816406 35.507812 50.535156 35.53125 C 50.128906 35.460938 49.792969 35.390625 49.425781 35.273438 C 49.234375 35.242188 49.082031 35.257812 48.851562 35.277344 C 48.066406 35.207031 47.359375 35.136719 46.605469 35.011719 C 46.230469 34.976562 45.90625 34.992188 45.496094 35.023438 C 45.1875 35.011719 44.964844 34.988281 44.679688 34.929688 C 43.996094 34.953125 43.378906 35.007812 42.675781 35.082031 C 42.054688 35.121094 41.511719 35.136719 40.90625 35.144531 C 40.734375 35.199219 40.625 35.257812 40.445312 35.335938 C 40.101562 35.414062 39.828125 35.472656 39.515625 35.484375 C 39.324219 35.484375 39.171875 35.527344 38.949219 35.597656 C 38.703125 35.699219 38.527344 35.792969 38.347656 35.847656 C 33.8125 37.210938 30.285156 40.5 27.910156 45.789062 C 26.859375 48.132812 26.042969 50.664062 25.171875 53.144531 C 25.042969 53.507812 25.160156 54.066406 25.242188 54.507812 C 25.527344 56.082031 25.847656 57.648438 26.148438 59.320312 C 26.195312 59.808594 26.242188 60.195312 26.300781 60.683594 C 26.265625 61.375 26.414062 61.734375 26.96875 61.730469 C 27.410156 61.722656 27.792969 61.671875 28.253906 61.605469 C 28.683594 61.578125 29.039062 61.5625 29.472656 61.558594 C 29.773438 61.5 30.003906 61.4375 30.308594 61.355469 C 31.484375 60.976562 32.589844 60.644531 33.683594 60.253906 C 34.527344 59.953125 35.148438 59.269531 35.464844 58.148438 C 36.09375 55.90625 36.730469 53.667969 37.414062 51.347656 C 37.476562 49.417969 37.492188 47.566406 37.511719 45.636719 C 37.707031 45.320312 37.902344 45.082031 38.148438 44.894531 C 38.371094 44.953125 38.539062 44.96875 38.777344 44.996094 C 38.972656 45.277344 39.203125 45.539062 39.207031 45.804688 C 39.226562 47.898438 39.4375 50.050781 39.140625 52.070312 C 38.558594 56.027344 37.683594 59.90625 36.882812 63.898438 C 36.816406 65.152344 36.765625 66.324219 36.78125 67.496094 C 36.796875 68.734375 36.878906 69.976562 36.945312 71.3125 C 37.027344 72.160156 37.09375 72.910156 37.15625 73.730469 C 37.203125 73.929688 37.25 74.054688 37.308594 74.277344 C 37.335938 74.695312 37.34375 75.019531 37.347656 75.433594 C 37.390625 75.734375 37.4375 75.945312 37.5 76.257812 C 37.617188 77.1875 37.558594 78.355469 38.3125 78.480469 C 39.390625 78.660156 40.507812 78.429688 41.609375 78.367188 C 41.628906 78.363281 41.644531 78.21875 41.699219 78.078125 C 41.714844 77.652344 41.6875 77.289062 41.628906 76.839844 C 41.351562 76.558594 41.097656 76.375 40.859375 76.160156 C 40.503906 75.839844 40.164062 75.496094 39.855469 75.074219 C 39.914062 73.558594 39.953125 72.128906 39.941406 70.695312 C 39.925781 69.066406 39.863281 67.4375 39.839844 65.734375 C 42.230469 62.472656 44.621094 59.308594 46.96875 56.089844 C 47.488281 55.382812 48.003906 55.203125 48.703125 55.410156 C 54.113281 57.003906 59.527344 58.558594 64.9375 60.171875 C 65.332031 60.292969 65.667969 60.78125 66.011719 61.121094 C 65.964844 61.230469 65.984375 61.289062 66.0625 61.441406 C 66.144531 65.496094 66.214844 69.433594 66.285156 73.449219 C 66.328125 73.664062 66.371094 73.796875 66.429688 74.023438 C 66.484375 74.484375 66.523438 74.847656 66.53125 75.269531 C 66.535156 75.519531 66.570312 75.71875 66.621094 76.015625 C 66.929688 78.574219 66.988281 78.640625 68.859375 78.640625 C 69.476562 78.640625 70.097656 78.640625 70.777344 78.578125 C 70.8125 77.902344 70.789062 77.289062 70.726562 76.601562 C 70.417969 76.398438 70.121094 76.328125 69.882812 76.132812 C 69.582031 75.886719 69.328125 75.535156 69.058594 75.113281 C 69.0625 71.671875 69.074219 68.351562 69.0625 65.03125 C 69.058594 64.058594 68.996094 63.082031 68.972656 62.03125 C 69.335938 61.558594 69.644531 61.085938 70.027344 60.78125 C 73.308594 58.210938 76.589844 55.640625 79.894531 53.128906 C 81.503906 51.910156 82.742188 50.269531 83.667969 48.152344 C 84.425781 46.417969 85.246094 44.734375 86.121094 43.027344 C 86.371094 43.019531 86.539062 43.007812 86.773438 43 C 87.015625 43.027344 87.191406 43.054688 87.410156 43.132812 C 87.570312 43.207031 87.683594 43.230469 87.875 43.25 C 88.816406 43.4375 89.679688 43.628906 90.589844 43.875 C 90.757812 43.949219 90.882812 43.96875 91.085938 43.984375 C 92.769531 44.199219 94.214844 43.570312 95.644531 42.582031 C 96.027344 42.691406 96.355469 42.8125 96.679688 42.808594 C 97.089844 42.804688 97.5 42.703125 97.910156 42.640625 C 97.46875 43.328125 97.128906 44.269531 96.566406 44.644531 C 95.46875 45.382812 94.25 45.808594 92.988281 46.351562 C 92.847656 46.324219 92.808594 46.351562 92.785156 46.417969 C 92.273438 46.433594 91.757812 46.453125 91.125 46.402344 C 90.941406 46.316406 90.878906 46.296875 90.816406 46.277344 C 90.636719 46.265625 90.460938 46.253906 90.171875 46.167969 C 89.945312 46.074219 89.824219 46.054688 89.707031 46.035156 C 89.527344 46.019531 89.34375 46.003906 89.054688 45.917969 C 88.828125 45.824219 88.714844 45.804688 88.597656 45.78125 C 87.265625 45.140625 86.613281 46.09375 86.101562 47.5625 C 84.675781 51.632812 82.320312 54.425781 79.328125 56.492188 C 76.644531 58.34375 74.089844 60.519531 71.464844 62.523438 C 70.960938 62.90625 70.71875 63.3125 70.734375 64.148438 C 70.78125 66.988281 70.765625 69.824219 70.742188 72.664062 C 70.734375 73.347656 70.84375 73.78125 71.351562 74.113281 C 72.15625 74.636719 72.601562 75.570312 72.628906 76.777344 C 72.65625 77.804688 72.671875 78.832031 72.621094 79.855469 C 72.601562 80.199219 72.367188 80.527344 72.070312 80.871094 C 70.308594 80.886719 68.710938 80.894531 67.113281 80.902344 C 65.496094 80.523438 65.023438 78.957031 64.867188 76.949219 C 64.863281 76.683594 64.832031 76.554688 64.804688 76.429688 M 29.578125 63.8125 C 29.429688 63.871094 29.28125 63.933594 28.960938 64.039062 C 27.878906 64.101562 26.792969 64.210938 25.710938 64.214844 C 24.746094 64.21875 24.5 63.773438 24.441406 62.503906 C 24.351562 60.53125 24.195312 58.5625 24.066406 56.589844 C 23.96875 56.578125 23.871094 56.566406 23.773438 56.554688 C 21.691406 61.449219 18.679688 65.023438 14.855469 67.433594 C 14.859375 67.574219 14.859375 67.714844 14.859375 67.859375 C 16.441406 68.582031 18.023438 69.304688 19.710938 70.148438 C 19.886719 70.164062 20.066406 70.183594 20.378906 70.207031 C 20.558594 70.230469 20.738281 70.253906 21.011719 70.390625 C 21.339844 70.378906 21.664062 70.367188 22.148438 70.324219 C 22.304688 70.332031 22.460938 70.34375 22.722656 70.433594 C 22.984375 70.382812 23.246094 70.332031 23.664062 70.246094 C 27.324219 69.453125 30.21875 66.921875 32.707031 63.265625 C 32.695312 63.21875 32.679688 63.167969 32.667969 63.117188 C 32.605469 63.167969 32.546875 63.21875 32.367188 63.308594 C 32.210938 63.355469 32.054688 63.402344 31.832031 63.378906 C 31.738281 63.425781 31.644531 63.46875 31.425781 63.550781 C 31.210938 63.601562 31 63.65625 30.742188 63.664062 C 30.683594 63.648438 30.644531 63.679688 30.46875 63.796875 C 30.210938 63.800781 29.957031 63.808594 29.578125 63.8125 M 61.917969 40.722656 C 61.421875 40.917969 60.796875 40.9375 60.46875 41.359375 C 60.203125 41.703125 60.148438 42.582031 60.257812 43.132812 C 60.433594 44.003906 61.027344 44.546875 61.695312 44.230469 C 62.152344 44.011719 62.671875 43.441406 62.839844 42.867188 C 63.089844 41.996094 62.761719 41.191406 61.917969 40.722656 M 61.503906 37.175781 C 61.488281 37.160156 61.476562 37.144531 61.503906 37.175781 Z M 61.503906 37.175781 "/>
<path style=" stroke:none;fill-rule:nonzero;fill:rgb(30.980392%,57.254902%,81.176471%);fill-opacity:1;" d="M 81.296875 71.851562 C 81.667969 72.148438 81.996094 72.382812 82.320312 72.617188 C 82.566406 71.898438 82.996094 71.179688 82.996094 70.460938 C 82.996094 69.824219 82.59375 69.09375 82.230469 68.574219 C 80.648438 66.304688 79.027344 64.089844 77.402344 61.875 C 76.90625 61.199219 76.640625 60.523438 77.242188 59.761719 C 77.84375 59.003906 78.296875 59.523438 78.738281 60.136719 C 80.433594 62.488281 82.140625 64.824219 83.835938 67.179688 C 85.199219 69.078125 85.308594 71.71875 84.125 73.8125 C 83.164062 75.507812 81.558594 75.734375 80.414062 74.238281 C 78 71.085938 75.621094 67.890625 73.226562 64.710938 C 72.75 64.078125 72.542969 63.339844 73.0625 62.660156 C 73.597656 61.957031 74.148438 62.324219 74.609375 62.9375 C 76.824219 65.886719 79.035156 68.839844 81.296875 71.851562 Z M 81.296875 71.851562 "/>
<path style=" stroke:none;fill-rule:nonzero;fill:rgb(31.372549%,57.647059%,81.176471%);fill-opacity:1;" d="M 45.386719 64.855469 C 46.113281 65.039062 46.339844 65.59375 46.328125 66.464844 C 46.300781 68.523438 46.335938 70.585938 46.3125 72.644531 C 46.300781 73.328125 46.507812 73.675781 46.894531 74.136719 C 47.4375 74.773438 47.773438 75.71875 48.183594 76.542969 C 48.25 76.671875 48.25 76.859375 48.265625 77.023438 C 48.609375 80.785156 48.074219 81.507812 45.234375 81.113281 C 44.628906 81.03125 44.230469 80.628906 44.25 79.785156 C 44.269531 78.996094 44.644531 78.621094 45.238281 78.636719 C 45.546875 78.648438 45.855469 78.640625 46.148438 78.640625 C 46.519531 76.859375 46.414062 76.71875 45.230469 76.035156 C 44.875 75.828125 44.488281 75.082031 44.476562 74.566406 C 44.402344 71.851562 44.394531 69.125 44.480469 66.410156 C 44.496094 65.882812 45.023438 65.378906 45.386719 64.855469 Z M 45.386719 64.855469 "/>
<path style=" stroke:none;fill-rule:nonzero;fill:rgb(18.823529%,46.666667%,71.372549%);fill-opacity:1;" d="M 95.019531 39.816406 C 95.613281 39.53125 96.210938 39.246094 96.84375 38.894531 C 98.058594 38.757812 98.808594 39.710938 98.707031 41.269531 C 98.683594 41.613281 98.34375 41.925781 98.039062 42.308594 C 97.925781 42.449219 97.917969 42.527344 97.910156 42.609375 C 97.910156 42.609375 97.910156 42.625 97.910156 42.632812 C 97.5 42.703125 97.089844 42.804688 96.679688 42.808594 C 96.355469 42.8125 96.027344 42.691406 95.640625 42.488281 C 95.390625 41.507812 95.203125 40.660156 95.019531 39.816406 Z M 95.019531 39.816406 "/>
<path style=" stroke:none;fill-rule:nonzero;fill:rgb(30.980392%,57.254902%,81.176471%);fill-opacity:1;" d="M 64.210938 62.6875 C 64.273438 62.792969 64.390625 63.011719 64.390625 63.230469 C 64.386719 65.996094 64.367188 68.761719 64.308594 71.613281 C 64.25 68.730469 64.230469 65.765625 64.210938 62.6875 Z M 64.210938 62.6875 "/>
<path style=" stroke:none;fill-rule:nonzero;fill:rgb(30.980392%,57.254902%,81.176471%);fill-opacity:1;" d="M 67.179688 80.96875 C 68.710938 80.894531 70.308594 80.886719 72 80.882812 C 70.476562 80.941406 68.859375 80.988281 67.179688 80.96875 Z M 67.179688 80.96875 "/>
<path style=" stroke:none;fill-rule:nonzero;fill:rgb(30.980392%,57.254902%,81.176471%);fill-opacity:1;" d="M 38.183594 81.0625 C 39.664062 80.980469 41.226562 80.929688 42.875 80.882812 C 41.929688 80.964844 40.890625 81.054688 39.851562 81.109375 C 39.324219 81.136719 38.796875 81.097656 38.183594 81.0625 Z M 38.183594 81.0625 "/>
<path style=" stroke:none;fill-rule:nonzero;fill:rgb(30.980392%,57.254902%,81.176471%);fill-opacity:1;" d="M 66.738281 35.144531 C 66.421875 35.199219 66.027344 35.238281 65.582031 35.21875 C 65.90625 35.148438 66.28125 35.140625 66.738281 35.144531 Z M 66.738281 35.144531 "/>
<path style=" stroke:none;fill-rule:nonzero;fill:rgb(30.980392%,57.254902%,81.176471%);fill-opacity:1;" d="M 41.734375 32.671875 C 41.582031 32.75 41.363281 32.816406 41.070312 32.871094 C 41.21875 32.792969 41.441406 32.726562 41.734375 32.671875 Z M 41.734375 32.671875 "/>
<path style=" stroke:none;fill-rule:nonzero;fill:rgb(30.980392%,57.254902%,81.176471%);fill-opacity:1;" d="M 48.4375 32.714844 C 48.296875 32.761719 48.085938 32.777344 47.835938 32.738281 C 47.988281 32.683594 48.179688 32.683594 48.4375 32.714844 Z M 48.4375 32.714844 "/>
<path style=" stroke:none;fill-rule:nonzero;fill:rgb(30.980392%,57.254902%,81.176471%);fill-opacity:1;" d="M 59.085938 34.183594 C 58.941406 34.234375 58.730469 34.253906 58.476562 34.222656 C 58.628906 34.167969 58.820312 34.164062 59.085938 34.183594 Z M 59.085938 34.183594 "/>
<path style=" stroke:none;fill-rule:nonzero;fill:rgb(30.980392%,57.254902%,81.176471%);fill-opacity:1;" d="M 52 33.179688 C 51.910156 33.230469 51.753906 33.257812 51.5625 33.230469 C 51.664062 33.171875 51.800781 33.164062 52 33.179688 Z M 52 33.179688 "/>
<path style=" stroke:none;fill-rule:nonzero;fill:rgb(30.980392%,57.254902%,81.176471%);fill-opacity:1;" d="M 53.855469 33.46875 C 53.765625 33.511719 53.613281 33.519531 53.429688 33.480469 C 53.527344 33.433594 53.660156 33.433594 53.855469 33.46875 Z M 53.855469 33.46875 "/>
<path style=" stroke:none;fill-rule:nonzero;fill:rgb(30.980392%,57.254902%,81.176471%);fill-opacity:1;" d="M 55.835938 33.792969 C 55.710938 33.832031 55.535156 33.8125 55.3125 33.734375 C 55.4375 33.699219 55.609375 33.71875 55.835938 33.792969 Z M 55.835938 33.792969 "/>
<path style=" stroke:none;fill-rule:nonzero;fill:rgb(30.980392%,57.254902%,81.176471%);fill-opacity:1;" d="M 60.769531 34.4375 C 60.675781 34.484375 60.523438 34.5 60.335938 34.46875 C 60.4375 34.414062 60.570312 34.410156 60.769531 34.4375 Z M 60.769531 34.4375 "/>
<path style=" stroke:none;fill-rule:nonzero;fill:rgb(30.980392%,57.254902%,81.176471%);fill-opacity:1;" d="M 64.320312 34.917969 C 64.230469 34.96875 64.074219 34.992188 63.882812 34.964844 C 63.984375 34.90625 64.121094 34.898438 64.320312 34.917969 Z M 64.320312 34.917969 "/>
<path style=" stroke:none;fill-rule:nonzero;fill:rgb(30.980392%,57.254902%,81.176471%);fill-opacity:1;" d="M 19.042969 72.292969 C 19.117188 72.257812 19.222656 72.285156 19.367188 72.367188 C 19.296875 72.398438 19.183594 72.378906 19.042969 72.292969 Z M 19.042969 72.292969 "/>
<path style=" stroke:none;fill-rule:nonzero;fill:rgb(30.980392%,57.254902%,81.176471%);fill-opacity:1;" d="M 35.117188 71.5625 C 35.152344 71.613281 35.179688 71.742188 35.175781 71.910156 C 35.128906 71.847656 35.117188 71.742188 35.117188 71.5625 Z M 35.117188 71.5625 "/>
<path style=" stroke:none;fill-rule:nonzero;fill:rgb(30.980392%,57.254902%,81.176471%);fill-opacity:1;" d="M 43.464844 76.335938 C 43.410156 76.289062 43.363281 76.171875 43.3125 75.980469 C 43.363281 76.03125 43.417969 76.148438 43.464844 76.335938 Z M 43.464844 76.335938 "/>
<path style=" stroke:none;fill-rule:nonzero;fill:rgb(30.980392%,57.254902%,81.176471%);fill-opacity:1;" d="M 64.792969 76.507812 C 64.832031 76.554688 64.863281 76.683594 64.859375 76.851562 C 64.816406 76.792969 64.800781 76.6875 64.792969 76.507812 Z M 64.792969 76.507812 "/>
<path style=" stroke:none;fill-rule:nonzero;fill:rgb(30.980392%,57.254902%,81.176471%);fill-opacity:1;" d="M 88.640625 45.839844 C 88.714844 45.804688 88.828125 45.824219 88.988281 45.902344 C 88.914062 45.933594 88.800781 45.914062 88.640625 45.839844 Z M 88.640625 45.839844 "/>
<path style=" stroke:none;fill-rule:nonzero;fill:rgb(30.980392%,57.254902%,81.176471%);fill-opacity:1;" d="M 50.5 33 C 50.457031 33.039062 50.363281 33.035156 50.25 32.996094 C 50.300781 32.957031 50.375 32.960938 50.5 33 Z M 50.5 33 "/>
<path style=" stroke:none;fill-rule:nonzero;fill:rgb(30.980392%,57.254902%,81.176471%);fill-opacity:1;" d="M 61.414062 61.65625 C 61.484375 61.625 61.59375 61.648438 61.738281 61.726562 C 61.667969 61.757812 61.558594 61.734375 61.414062 61.65625 Z M 61.414062 61.65625 "/>
<path style=" stroke:none;fill-rule:nonzero;fill:rgb(30.980392%,57.254902%,81.176471%);fill-opacity:1;" d="M 62.910156 34.800781 C 62.84375 34.832031 62.738281 34.8125 62.59375 34.746094 C 62.65625 34.71875 62.761719 34.734375 62.910156 34.800781 Z M 62.910156 34.800781 "/>
<path style=" stroke:none;fill-rule:nonzero;fill:rgb(30.980392%,57.254902%,81.176471%);fill-opacity:1;" d="M 89.75 46.09375 C 89.824219 46.054688 89.945312 46.074219 90.109375 46.152344 C 90.03125 46.1875 89.910156 46.171875 89.75 46.09375 Z M 89.75 46.09375 "/>
<path style=" stroke:none;fill-rule:nonzero;fill:rgb(30.588235%,57.254902%,81.568627%);fill-opacity:1;" d="M 97.941406 42.570312 C 97.917969 42.527344 97.925781 42.449219 97.976562 42.335938 C 98.007812 42.382812 97.992188 42.457031 97.941406 42.570312 Z M 97.941406 42.570312 "/>
<path style=" stroke:none;fill-rule:nonzero;fill:rgb(30.980392%,57.254902%,81.176471%);fill-opacity:1;" d="M 35.679688 76.980469 C 35.75 76.957031 35.769531 77.015625 35.726562 77.121094 C 35.707031 77.148438 35.675781 77.039062 35.679688 76.980469 Z M 35.679688 76.980469 "/>
<path style=" stroke:none;fill-rule:nonzero;fill:rgb(30.980392%,57.254902%,81.176471%);fill-opacity:1;" d="M 92.824219 46.425781 C 92.808594 46.351562 92.847656 46.324219 92.917969 46.359375 C 92.9375 46.378906 92.863281 46.429688 92.824219 46.425781 Z M 92.824219 46.425781 "/>
<path style=" stroke:none;fill-rule:nonzero;fill:rgb(30.980392%,57.254902%,81.176471%);fill-opacity:1;" d="M 90.851562 46.328125 C 90.878906 46.296875 90.941406 46.316406 91.042969 46.378906 C 91.015625 46.40625 90.949219 46.394531 90.851562 46.328125 Z M 90.851562 46.328125 "/>
<path style=" stroke:none;fill-rule:nonzero;fill:rgb(99.607843%,100%,80.392157%);fill-opacity:1;" d="M 94.957031 39.789062 C 95.203125 40.660156 95.390625 41.507812 95.582031 42.449219 C 94.214844 43.570312 92.769531 44.199219 91.039062 43.925781 C 90.789062 43.851562 90.667969 43.835938 90.542969 43.820312 C 89.679688 43.628906 88.816406 43.4375 87.832031 43.195312 C 87.597656 43.125 87.484375 43.101562 87.371094 43.078125 C 87.191406 43.054688 87.015625 43.027344 86.726562 42.9375 C 86.421875 42.921875 86.230469 42.972656 86.039062 43.027344 C 85.246094 44.734375 84.425781 46.417969 83.667969 48.152344 C 82.742188 50.269531 81.503906 51.910156 79.894531 53.128906 C 76.589844 55.640625 73.308594 58.210938 70.027344 60.78125 C 69.644531 61.085938 69.335938 61.558594 68.949219 62.136719 C 68.902344 66.320312 68.890625 70.316406 68.898438 74.308594 C 68.898438 74.617188 69 74.925781 69.050781 75.230469 C 69.328125 75.535156 69.582031 75.886719 69.882812 76.132812 C 70.121094 76.328125 70.417969 76.398438 70.71875 76.707031 C 70.742188 77.472656 70.730469 78.054688 70.71875 78.636719 C 70.097656 78.640625 69.476562 78.640625 68.859375 78.640625 C 66.988281 78.640625 66.929688 78.574219 66.632812 75.925781 C 66.605469 75.5625 66.582031 75.390625 66.5625 75.214844 C 66.523438 74.847656 66.484375 74.484375 66.4375 73.949219 C 66.386719 73.644531 66.335938 73.507812 66.289062 73.371094 C 66.214844 69.433594 66.144531 65.496094 66.070312 61.382812 C 66.0625 61.210938 66.03125 61.097656 66.03125 61.097656 C 65.667969 60.78125 65.332031 60.292969 64.9375 60.171875 C 59.527344 58.558594 54.113281 57.003906 48.703125 55.410156 C 48.003906 55.203125 47.488281 55.382812 46.96875 56.089844 C 44.621094 59.308594 42.230469 62.472656 39.816406 65.84375 C 39.789062 69.074219 39.804688 72.117188 39.816406 75.160156 C 40.164062 75.496094 40.503906 75.839844 40.859375 76.160156 C 41.097656 76.375 41.351562 76.558594 41.617188 76.941406 C 41.640625 77.464844 41.652344 77.800781 41.660156 78.140625 C 41.644531 78.21875 41.628906 78.363281 41.609375 78.367188 C 40.507812 78.429688 39.390625 78.660156 38.3125 78.480469 C 37.558594 78.355469 37.617188 77.1875 37.507812 76.175781 C 37.457031 75.773438 37.40625 75.558594 37.355469 75.34375 C 37.34375 75.019531 37.335938 74.695312 37.316406 74.203125 C 37.261719 73.910156 37.207031 73.785156 37.15625 73.660156 C 37.09375 72.910156 37.027344 72.160156 36.957031 71.199219 C 36.945312 68.597656 36.9375 66.207031 36.929688 63.816406 C 37.683594 59.90625 38.558594 56.027344 39.140625 52.070312 C 39.4375 50.050781 39.226562 47.898438 39.207031 45.804688 C 39.203125 45.539062 38.972656 45.277344 38.730469 44.933594 C 38.441406 44.851562 38.269531 44.847656 38.097656 44.84375 C 37.902344 45.082031 37.707031 45.320312 37.460938 45.71875 C 37.394531 47.730469 37.382812 49.578125 37.367188 51.429688 C 36.730469 53.667969 36.09375 55.90625 35.464844 58.148438 C 35.148438 59.269531 34.527344 59.953125 33.683594 60.253906 C 32.589844 60.644531 31.484375 60.976562 30.234375 61.339844 C 29.859375 61.414062 29.625 61.484375 29.394531 61.550781 C 29.039062 61.5625 28.683594 61.578125 28.175781 61.589844 C 27.648438 61.625 27.28125 61.65625 26.910156 61.6875 C 26.414062 61.734375 26.265625 61.375 26.3125 60.585938 C 26.257812 59.992188 26.207031 59.605469 26.152344 59.214844 C 25.847656 57.648438 25.527344 56.082031 25.242188 54.507812 C 25.160156 54.066406 25.042969 53.507812 25.171875 53.144531 C 26.042969 50.664062 26.859375 48.132812 27.910156 45.789062 C 30.285156 40.5 33.8125 37.210938 38.347656 35.847656 C 38.527344 35.792969 38.703125 35.699219 39.015625 35.613281 C 39.289062 35.578125 39.421875 35.554688 39.554688 35.527344 C 39.828125 35.472656 40.101562 35.414062 40.507812 35.347656 C 40.75 35.277344 40.859375 35.214844 40.96875 35.152344 C 41.511719 35.136719 42.054688 35.121094 42.761719 35.097656 C 43.53125 35.046875 44.136719 35.003906 44.742188 34.960938 C 44.964844 34.988281 45.1875 35.011719 45.570312 35.050781 C 46.035156 35.066406 46.34375 35.066406 46.65625 35.0625 C 47.359375 35.136719 48.066406 35.207031 48.914062 35.308594 C 49.191406 35.332031 49.324219 35.328125 49.460938 35.324219 C 49.792969 35.390625 50.128906 35.460938 50.601562 35.558594 C 50.9375 35.582031 51.132812 35.578125 51.324219 35.570312 C 52.125 35.675781 52.921875 35.78125 53.855469 35.945312 C 54.15625 36.023438 54.328125 36.042969 54.5 36.0625 C 54.851562 36.097656 55.207031 36.132812 55.695312 36.214844 C 56.070312 36.277344 56.3125 36.296875 56.550781 36.3125 C 56.882812 36.382812 57.21875 36.453125 57.6875 36.554688 C 57.960938 36.578125 58.097656 36.570312 58.234375 36.5625 C 58.480469 36.585938 58.726562 36.609375 59.085938 36.683594 C 59.3125 36.75 59.421875 36.769531 59.535156 36.785156 C 60.011719 36.863281 60.488281 36.9375 61.007812 37.019531 C 60.777344 38.246094 60.34375 38.765625 59.453125 38.46875 C 58.78125 38.246094 58.359375 38.851562 58.527344 39.785156 C 58.679688 40.625 58.503906 41.179688 57.929688 41.613281 C 57.289062 42.101562 57.308594 42.808594 57.957031 43.335938 C 58.503906 43.777344 58.683594 44.347656 58.527344 45.183594 C 58.347656 46.144531 58.765625 46.738281 59.457031 46.460938 C 60.070312 46.214844 60.445312 46.480469 60.785156 47.109375 C 61.253906 47.980469 61.667969 47.902344 62.210938 47.171875 C 62.515625 46.769531 63.070312 46.492188 63.496094 46.511719 C 64.21875 46.550781 64.644531 46.167969 64.480469 45.25 C 64.332031 44.421875 64.484375 43.84375 65.046875 43.394531 C 65.726562 42.855469 65.65625 42.203125 65.082031 41.527344 C 64.761719 41.152344 64.515625 40.414062 64.53125 39.851562 C 64.554688 38.769531 64.296875 38.25 63.539062 38.507812 C 62.628906 38.816406 62.273438 38.007812 61.910156 37.144531 C 62.09375 37.144531 62.304688 37.144531 62.628906 37.199219 C 62.984375 37.269531 63.222656 37.285156 63.457031 37.300781 C 65.429688 37.714844 67.441406 38.035156 69.28125 36.8125 C 70.644531 35.90625 71.890625 34.65625 73.105469 33.414062 C 75.261719 31.214844 77.355469 28.910156 79.5625 26.503906 C 79.660156 23.84375 79.667969 21.324219 79.675781 18.808594 C 79.707031 18.609375 79.734375 18.414062 79.777344 18.144531 C 80.914062 19.796875 82.066406 21.347656 83.101562 23.023438 C 84.277344 24.925781 85.621094 26.515625 87.265625 27.648438 C 88.730469 28.652344 89.753906 30.191406 90.429688 32.15625 C 90.664062 32.828125 90.960938 33.46875 91.128906 34.164062 C 91.765625 36.777344 93.453125 38.125 94.957031 39.789062 M 47.269531 36.605469 C 46.738281 36.574219 46.28125 36.546875 46 37.425781 C 45.546875 38.820312 44.867188 39.054688 43.691406 38.738281 C 43.335938 38.640625 42.882812 39 42.511719 39.253906 C 42.042969 39.570312 42.0625 40.097656 42.226562 40.710938 C 42.589844 42.085938 42.292969 43.105469 41.308594 43.707031 C 40.792969 44.019531 40.683594 44.433594 40.675781 45.121094 C 40.667969 45.832031 40.828125 46.226562 41.332031 46.53125 C 42.265625 47.097656 42.589844 48.09375 42.257812 49.339844 C 42.0625 50.085938 42.144531 50.566406 42.578125 51.15625 C 43.035156 51.777344 43.429688 51.628906 43.90625 51.417969 C 44.742188 51.058594 45.5625 51.480469 45.9375 52.5625 C 46.183594 53.277344 46.53125 53.476562 47.097656 53.472656 C 47.628906 53.464844 47.941406 53.273438 48.171875 52.605469 C 48.5625 51.480469 49.421875 51.003906 50.289062 51.460938 C 50.851562 51.757812 51.1875 51.578125 51.582031 51.039062 C 51.949219 50.542969 52.082031 50.136719 51.890625 49.441406 C 51.527344 48.136719 51.839844 47.082031 52.773438 46.523438 C 53.292969 46.210938 53.410156 45.785156 53.402344 45.097656 C 53.394531 44.429688 53.328125 43.976562 52.78125 43.667969 C 51.832031 43.125 51.507812 42.042969 51.855469 40.769531 C 52.023438 40.160156 52.03125 39.726562 51.621094 39.269531 C 51.230469 38.832031 50.949219 38.398438 50.335938 38.699219 C 49.3125 39.203125 48.628906 38.746094 48.097656 37.480469 C 47.953125 37.128906 47.652344 36.894531 47.269531 36.605469 M 55.125 47.488281 C 54.445312 47.515625 54.183594 47.855469 54.265625 48.863281 C 54.3125 49.414062 54.011719 50.136719 53.699219 50.582031 C 53.273438 51.195312 53.171875 51.894531 53.722656 52.363281 C 54.289062 52.851562 54.398438 53.460938 54.289062 54.265625 C 54.164062 55.183594 54.523438 55.480469 55.265625 55.480469 C 55.714844 55.480469 56.265625 55.785156 56.582031 56.207031 C 57.128906 56.925781 57.585938 57.0625 57.972656 56.230469 C 58.324219 55.480469 58.757812 55.289062 59.378906 55.480469 C 60.058594 55.683594 60.425781 55.171875 60.304688 54.203125 C 60.207031 53.441406 60.308594 52.867188 60.847656 52.414062 C 61.429688 51.921875 61.328125 51.226562 60.851562 50.558594 C 60.546875 50.136719 60.328125 49.414062 60.332031 48.832031 C 60.339844 47.894531 60.050781 47.3125 59.355469 47.53125 C 58.722656 47.730469 58.308594 47.570312 57.972656 46.808594 C 57.601562 45.960938 57.078125 46.101562 56.550781 46.84375 C 56.265625 47.25 55.703125 47.308594 55.125 47.488281 M 88.179688 34.59375 C 88.722656 33.859375 88.933594 32.949219 88.421875 32.171875 C 88.113281 31.703125 87.480469 31.34375 87.011719 31.378906 C 86.132812 31.449219 85.640625 32.695312 85.917969 33.757812 C 86.210938 34.871094 87.03125 35.230469 88.179688 34.59375 Z M 88.179688 34.59375 "/>
<path style=" stroke:none;fill-rule:nonzero;fill:rgb(99.607843%,99.607843%,80.784314%);fill-opacity:1;" d="M 19.609375 70.03125 C 18.023438 69.304688 16.441406 68.582031 14.859375 67.859375 C 14.859375 67.714844 14.859375 67.574219 14.855469 67.433594 C 18.679688 65.023438 21.691406 61.449219 23.773438 56.554688 C 23.871094 56.566406 23.96875 56.578125 24.066406 56.589844 C 24.195312 58.5625 24.351562 60.53125 24.441406 62.503906 C 24.5 63.773438 24.746094 64.21875 25.710938 64.214844 C 26.792969 64.210938 27.878906 64.101562 29.109375 64.03125 C 29.402344 63.953125 29.550781 63.886719 29.699219 63.816406 C 29.957031 63.808594 30.210938 63.800781 30.589844 63.78125 C 30.707031 63.765625 30.785156 63.707031 30.785156 63.707031 C 31 63.65625 31.210938 63.601562 31.546875 63.542969 C 31.746094 63.503906 31.820312 63.476562 31.894531 63.445312 C 32.054688 63.402344 32.210938 63.355469 32.464844 63.308594 C 32.566406 63.308594 32.648438 63.324219 32.648438 63.324219 C 30.21875 66.921875 27.324219 69.453125 23.511719 70.25 C 23.113281 70.285156 22.867188 70.320312 22.617188 70.355469 C 22.460938 70.34375 22.304688 70.332031 21.996094 70.308594 C 21.535156 70.289062 21.226562 70.285156 20.914062 70.277344 C 20.738281 70.253906 20.558594 70.230469 20.261719 70.140625 C 19.964844 70.058594 19.785156 70.046875 19.609375 70.03125 Z M 19.609375 70.03125 "/>
<path style=" stroke:none;fill-rule:nonzero;fill:rgb(98.823529%,99.607843%,81.176471%);fill-opacity:1;" d="M 61.984375 40.757812 C 62.761719 41.191406 63.089844 41.996094 62.839844 42.867188 C 62.671875 43.441406 62.152344 44.011719 61.695312 44.230469 C 61.027344 44.546875 60.433594 44.003906 60.257812 43.132812 C 60.148438 42.582031 60.203125 41.703125 60.46875 41.359375 C 60.796875 40.9375 61.421875 40.917969 61.984375 40.757812 Z M 61.984375 40.757812 "/>
<path style=" stroke:none;fill-rule:nonzero;fill:rgb(30.980392%,57.254902%,81.176471%);fill-opacity:1;" d="M 69.058594 75.113281 C 69 74.925781 68.898438 74.617188 68.898438 74.308594 C 68.890625 70.316406 68.902344 66.320312 68.933594 62.21875 C 68.996094 63.082031 69.058594 64.058594 69.0625 65.03125 C 69.074219 68.351562 69.0625 71.671875 69.058594 75.113281 Z M 69.058594 75.113281 "/>
<path style=" stroke:none;fill-rule:nonzero;fill:rgb(30.980392%,57.254902%,81.176471%);fill-opacity:1;" d="M 39.855469 75.074219 C 39.804688 72.117188 39.789062 69.074219 39.800781 65.921875 C 39.863281 67.4375 39.925781 69.066406 39.941406 70.695312 C 39.953125 72.128906 39.914062 73.558594 39.855469 75.074219 Z M 39.855469 75.074219 "/>
<path style=" stroke:none;fill-rule:nonzero;fill:rgb(30.980392%,57.254902%,81.176471%);fill-opacity:1;" d="M 79.628906 18.886719 C 79.667969 21.324219 79.660156 23.84375 79.59375 26.429688 C 79.546875 23.992188 79.566406 21.480469 79.628906 18.886719 Z M 79.628906 18.886719 "/>
<path style=" stroke:none;fill-rule:nonzero;fill:rgb(30.980392%,57.254902%,81.176471%);fill-opacity:1;" d="M 36.882812 63.898438 C 36.9375 66.207031 36.945312 68.597656 36.941406 71.101562 C 36.878906 69.976562 36.796875 68.734375 36.78125 67.496094 C 36.765625 66.324219 36.816406 65.152344 36.882812 63.898438 Z M 36.882812 63.898438 "/>
<path style=" stroke:none;fill-rule:nonzero;fill:rgb(30.980392%,57.254902%,81.176471%);fill-opacity:1;" d="M 37.414062 51.347656 C 37.382812 49.578125 37.394531 47.730469 37.460938 45.800781 C 37.492188 47.566406 37.476562 49.417969 37.414062 51.347656 Z M 37.414062 51.347656 "/>
<path style=" stroke:none;fill-rule:nonzero;fill:rgb(30.980392%,57.254902%,81.176471%);fill-opacity:1;" d="M 44.679688 34.929688 C 44.136719 35.003906 43.53125 35.046875 42.84375 35.078125 C 43.378906 35.007812 43.996094 34.953125 44.679688 34.929688 Z M 44.679688 34.929688 "/>
<path style=" stroke:none;fill-rule:nonzero;fill:rgb(30.980392%,57.254902%,81.176471%);fill-opacity:1;" d="M 70.777344 78.578125 C 70.730469 78.054688 70.742188 77.472656 70.761719 76.785156 C 70.789062 77.289062 70.8125 77.902344 70.777344 78.578125 Z M 70.777344 78.578125 "/>
<path style=" stroke:none;fill-rule:nonzero;fill:rgb(30.980392%,57.254902%,81.176471%);fill-opacity:1;" d="M 26.96875 61.730469 C 27.28125 61.65625 27.648438 61.625 28.097656 61.605469 C 27.792969 61.671875 27.410156 61.722656 26.96875 61.730469 Z M 26.96875 61.730469 "/>
<path style=" stroke:none;fill-rule:nonzero;fill:rgb(30.980392%,57.254902%,81.176471%);fill-opacity:1;" d="M 20.964844 70.335938 C 21.226562 70.285156 21.535156 70.289062 21.917969 70.328125 C 21.664062 70.367188 21.339844 70.378906 20.964844 70.335938 Z M 20.964844 70.335938 "/>
<path style=" stroke:none;fill-rule:nonzero;fill:rgb(30.980392%,57.254902%,81.176471%);fill-opacity:1;" d="M 46.605469 35.011719 C 46.34375 35.066406 46.035156 35.066406 45.652344 35.039062 C 45.90625 34.992188 46.230469 34.976562 46.605469 35.011719 Z M 46.605469 35.011719 "/>
<path style=" stroke:none;fill-rule:nonzero;fill:rgb(30.980392%,57.254902%,81.176471%);fill-opacity:1;" d="M 41.699219 78.078125 C 41.652344 77.800781 41.640625 77.464844 41.644531 77.023438 C 41.6875 77.289062 41.714844 77.652344 41.699219 78.078125 Z M 41.699219 78.078125 "/>
<path style=" stroke:none;fill-rule:nonzero;fill:rgb(30.980392%,57.254902%,81.176471%);fill-opacity:1;" d="M 22.667969 70.394531 C 22.867188 70.320312 23.113281 70.285156 23.4375 70.265625 C 23.246094 70.332031 22.984375 70.382812 22.667969 70.394531 Z M 22.667969 70.394531 "/>
<path style=" stroke:none;fill-rule:nonzero;fill:rgb(30.980392%,57.254902%,81.176471%);fill-opacity:1;" d="M 26.148438 59.320312 C 26.207031 59.605469 26.257812 59.992188 26.300781 60.480469 C 26.242188 60.195312 26.195312 59.808594 26.148438 59.320312 Z M 26.148438 59.320312 "/>
<path style=" stroke:none;fill-rule:nonzero;fill:rgb(30.980392%,57.254902%,81.176471%);fill-opacity:1;" d="M 56.496094 36.253906 C 56.3125 36.296875 56.070312 36.277344 55.769531 36.199219 C 55.957031 36.152344 56.199219 36.171875 56.496094 36.253906 Z M 56.496094 36.253906 "/>
<path style=" stroke:none;fill-rule:nonzero;fill:rgb(30.980392%,57.254902%,81.176471%);fill-opacity:1;" d="M 29.472656 61.558594 C 29.625 61.484375 29.859375 61.414062 30.160156 61.359375 C 30.003906 61.4375 29.773438 61.5 29.472656 61.558594 Z M 29.472656 61.558594 "/>
<path style=" stroke:none;fill-rule:nonzero;fill:rgb(30.980392%,57.254902%,81.176471%);fill-opacity:1;" d="M 51.285156 35.519531 C 51.132812 35.578125 50.9375 35.582031 50.675781 35.558594 C 50.816406 35.507812 51.03125 35.488281 51.285156 35.519531 Z M 51.285156 35.519531 "/>
<path style=" stroke:none;fill-rule:nonzero;fill:rgb(30.980392%,57.254902%,81.176471%);fill-opacity:1;" d="M 63.402344 37.242188 C 63.222656 37.285156 62.984375 37.269531 62.695312 37.191406 C 62.875 37.144531 63.113281 37.164062 63.402344 37.242188 Z M 63.402344 37.242188 "/>
<path style=" stroke:none;fill-rule:nonzero;fill:rgb(30.980392%,57.254902%,81.176471%);fill-opacity:1;" d="M 38.148438 44.894531 C 38.269531 44.847656 38.441406 44.851562 38.660156 44.917969 C 38.539062 44.96875 38.371094 44.953125 38.148438 44.894531 Z M 38.148438 44.894531 "/>
<path style=" stroke:none;fill-rule:nonzero;fill:rgb(30.980392%,57.254902%,81.176471%);fill-opacity:1;" d="M 19.660156 70.089844 C 19.785156 70.046875 19.964844 70.058594 20.195312 70.136719 C 20.066406 70.183594 19.886719 70.164062 19.660156 70.089844 Z M 19.660156 70.089844 "/>
<path style=" stroke:none;fill-rule:nonzero;fill:rgb(30.980392%,57.254902%,81.176471%);fill-opacity:1;" d="M 29.640625 63.8125 C 29.550781 63.886719 29.402344 63.953125 29.191406 64.007812 C 29.28125 63.933594 29.429688 63.871094 29.640625 63.8125 Z M 29.640625 63.8125 "/>
<path style=" stroke:none;fill-rule:nonzero;fill:rgb(30.980392%,57.254902%,81.176471%);fill-opacity:1;" d="M 54.449219 36.007812 C 54.328125 36.042969 54.15625 36.023438 53.933594 35.945312 C 54.058594 35.910156 54.230469 35.929688 54.449219 36.007812 Z M 54.449219 36.007812 "/>
<path style=" stroke:none;fill-rule:nonzero;fill:rgb(30.980392%,57.254902%,81.176471%);fill-opacity:1;" d="M 39.515625 35.484375 C 39.421875 35.554688 39.289062 35.578125 39.089844 35.585938 C 39.171875 35.527344 39.324219 35.484375 39.515625 35.484375 Z M 39.515625 35.484375 "/>
<path style=" stroke:none;fill-rule:nonzero;fill:rgb(30.980392%,57.254902%,81.176471%);fill-opacity:1;" d="M 49.425781 35.273438 C 49.324219 35.328125 49.191406 35.332031 48.992188 35.304688 C 49.082031 35.257812 49.234375 35.242188 49.425781 35.273438 Z M 49.425781 35.273438 "/>
<path style=" stroke:none;fill-rule:nonzero;fill:rgb(30.980392%,57.254902%,81.176471%);fill-opacity:1;" d="M 66.53125 75.269531 C 66.582031 75.390625 66.605469 75.5625 66.617188 75.824219 C 66.570312 75.71875 66.535156 75.519531 66.53125 75.269531 Z M 66.53125 75.269531 "/>
<path style=" stroke:none;fill-rule:nonzero;fill:rgb(30.980392%,57.254902%,81.176471%);fill-opacity:1;" d="M 37.347656 75.433594 C 37.40625 75.558594 37.457031 75.773438 37.496094 76.074219 C 37.4375 75.945312 37.390625 75.734375 37.347656 75.433594 Z M 37.347656 75.433594 "/>
<path style=" stroke:none;fill-rule:nonzero;fill:rgb(30.980392%,57.254902%,81.176471%);fill-opacity:1;" d="M 86.121094 43.027344 C 86.230469 42.972656 86.421875 42.921875 86.65625 42.933594 C 86.539062 43.007812 86.371094 43.019531 86.121094 43.027344 Z M 86.121094 43.027344 "/>
<path style=" stroke:none;fill-rule:nonzero;fill:rgb(30.980392%,57.254902%,81.176471%);fill-opacity:1;" d="M 58.199219 36.511719 C 58.097656 36.570312 57.960938 36.578125 57.757812 36.558594 C 57.851562 36.507812 58.007812 36.484375 58.199219 36.511719 Z M 58.199219 36.511719 "/>
<path style=" stroke:none;fill-rule:nonzero;fill:rgb(30.980392%,57.254902%,81.176471%);fill-opacity:1;" d="M 37.15625 73.730469 C 37.207031 73.785156 37.261719 73.910156 37.304688 74.105469 C 37.25 74.054688 37.203125 73.929688 37.15625 73.730469 Z M 37.15625 73.730469 "/>
<path style=" stroke:none;fill-rule:nonzero;fill:rgb(30.980392%,57.254902%,81.176471%);fill-opacity:1;" d="M 66.285156 73.449219 C 66.335938 73.507812 66.386719 73.644531 66.425781 73.855469 C 66.371094 73.796875 66.328125 73.664062 66.285156 73.449219 Z M 66.285156 73.449219 "/>
<path style=" stroke:none;fill-rule:nonzero;fill:rgb(30.980392%,57.254902%,81.176471%);fill-opacity:1;" d="M 61.480469 37.152344 C 61.476562 37.144531 61.488281 37.160156 61.480469 37.152344 Z M 61.480469 37.152344 "/>
<path style=" stroke:none;fill-rule:nonzero;fill:rgb(30.980392%,57.254902%,81.176471%);fill-opacity:1;" d="M 59.492188 36.738281 C 59.421875 36.769531 59.3125 36.75 59.160156 36.679688 C 59.230469 36.648438 59.339844 36.667969 59.492188 36.738281 Z M 59.492188 36.738281 "/>
<path style=" stroke:none;fill-rule:nonzero;fill:rgb(30.980392%,57.254902%,81.176471%);fill-opacity:1;" d="M 31.863281 63.414062 C 31.820312 63.476562 31.746094 63.503906 31.613281 63.523438 C 31.644531 63.46875 31.738281 63.425781 31.863281 63.414062 Z M 31.863281 63.414062 "/>
<path style=" stroke:none;fill-rule:nonzero;fill:rgb(30.980392%,57.254902%,81.176471%);fill-opacity:1;" d="M 32.675781 63.296875 C 32.648438 63.324219 32.566406 63.308594 32.527344 63.289062 C 32.546875 63.21875 32.605469 63.167969 32.667969 63.117188 C 32.679688 63.167969 32.695312 63.21875 32.675781 63.296875 Z M 32.675781 63.296875 "/>
<path style=" stroke:none;fill-rule:nonzero;fill:rgb(30.980392%,57.254902%,81.176471%);fill-opacity:1;" d="M 87.410156 43.132812 C 87.484375 43.101562 87.597656 43.125 87.753906 43.199219 C 87.683594 43.230469 87.570312 43.207031 87.410156 43.132812 Z M 87.410156 43.132812 "/>
<path style=" stroke:none;fill-rule:nonzero;fill:rgb(30.980392%,57.254902%,81.176471%);fill-opacity:1;" d="M 90.589844 43.875 C 90.667969 43.835938 90.789062 43.851562 90.960938 43.929688 C 90.882812 43.96875 90.757812 43.949219 90.589844 43.875 Z M 90.589844 43.875 "/>
<path style=" stroke:none;fill-rule:nonzero;fill:rgb(30.980392%,57.254902%,81.176471%);fill-opacity:1;" d="M 40.90625 35.144531 C 40.859375 35.214844 40.75 35.277344 40.578125 35.328125 C 40.625 35.257812 40.734375 35.199219 40.90625 35.144531 Z M 40.90625 35.144531 "/>
<path style=" stroke:none;fill-rule:nonzero;fill:rgb(30.980392%,57.254902%,81.176471%);fill-opacity:1;" d="M 30.761719 63.683594 C 30.785156 63.707031 30.707031 63.765625 30.664062 63.761719 C 30.644531 63.679688 30.683594 63.648438 30.761719 63.683594 Z M 30.761719 63.683594 "/>
<path style=" stroke:none;fill-rule:nonzero;fill:rgb(30.980392%,57.254902%,81.176471%);fill-opacity:1;" d="M 66.011719 61.121094 C 66.03125 61.097656 66.0625 61.210938 66.054688 61.269531 C 65.984375 61.289062 65.964844 61.230469 66.011719 61.121094 Z M 66.011719 61.121094 "/>
<path style=" stroke:none;fill-rule:nonzero;fill:rgb(30.196078%,57.254902%,81.568627%);fill-opacity:1;" d="M 47.347656 36.605469 C 47.652344 36.894531 47.953125 37.128906 48.097656 37.480469 C 48.628906 38.746094 49.3125 39.203125 50.335938 38.699219 C 50.949219 38.398438 51.230469 38.832031 51.621094 39.269531 C 52.03125 39.726562 52.023438 40.160156 51.855469 40.769531 C 51.507812 42.042969 51.832031 43.125 52.78125 43.667969 C 53.328125 43.976562 53.394531 44.429688 53.402344 45.097656 C 53.410156 45.785156 53.292969 46.210938 52.773438 46.523438 C 51.839844 47.082031 51.527344 48.136719 51.890625 49.441406 C 52.082031 50.136719 51.949219 50.542969 51.582031 51.039062 C 51.1875 51.578125 50.851562 51.757812 50.289062 51.460938 C 49.421875 51.003906 48.5625 51.480469 48.171875 52.605469 C 47.941406 53.273438 47.628906 53.464844 47.097656 53.472656 C 46.53125 53.476562 46.183594 53.277344 45.9375 52.5625 C 45.5625 51.480469 44.742188 51.058594 43.90625 51.417969 C 43.429688 51.628906 43.035156 51.777344 42.578125 51.15625 C 42.144531 50.566406 42.0625 50.085938 42.257812 49.339844 C 42.589844 48.09375 42.265625 47.097656 41.332031 46.53125 C 40.828125 46.226562 40.667969 45.832031 40.675781 45.121094 C 40.683594 44.433594 40.792969 44.019531 41.308594 43.707031 C 42.292969 43.105469 42.589844 42.085938 42.226562 40.710938 C 42.0625 40.097656 42.042969 39.570312 42.511719 39.253906 C 42.882812 39 43.335938 38.640625 43.691406 38.738281 C 44.867188 39.054688 45.546875 38.820312 46 37.425781 C 46.28125 36.546875 46.738281 36.574219 47.347656 36.605469 M 45.765625 42.652344 C 44.683594 44.03125 44.503906 45.398438 45.21875 46.800781 C 45.808594 47.949219 47.078125 48.375 48.039062 47.746094 C 49.125 47.035156 49.585938 45.347656 49.085938 43.886719 C 48.539062 42.269531 47.3125 41.761719 45.765625 42.652344 Z M 45.765625 42.652344 "/>
<path style=" stroke:none;fill-rule:nonzero;fill:rgb(30.980392%,57.647059%,81.568627%);fill-opacity:1;" d="M 55.195312 47.507812 C 55.703125 47.308594 56.265625 47.25 56.550781 46.84375 C 57.078125 46.101562 57.601562 45.960938 57.972656 46.808594 C 58.308594 47.570312 58.722656 47.730469 59.355469 47.53125 C 60.050781 47.3125 60.339844 47.894531 60.332031 48.832031 C 60.328125 49.414062 60.546875 50.136719 60.851562 50.558594 C 61.328125 51.226562 61.429688 51.921875 60.847656 52.414062 C 60.308594 52.867188 60.207031 53.441406 60.304688 54.203125 C 60.425781 55.171875 60.058594 55.683594 59.378906 55.480469 C 58.757812 55.289062 58.324219 55.480469 57.972656 56.230469 C 57.585938 57.0625 57.128906 56.925781 56.582031 56.207031 C 56.265625 55.785156 55.714844 55.480469 55.265625 55.480469 C 54.523438 55.480469 54.164062 55.183594 54.289062 54.265625 C 54.398438 53.460938 54.289062 52.851562 53.722656 52.363281 C 53.171875 51.894531 53.273438 51.195312 53.699219 50.582031 C 54.011719 50.136719 54.3125 49.414062 54.265625 48.863281 C 54.183594 47.855469 54.445312 47.515625 55.195312 47.507812 M 57.65625 53.308594 C 57.988281 52.738281 58.492188 52.21875 58.601562 51.578125 C 58.683594 51.117188 58.328125 50.191406 58.003906 50.023438 C 57.542969 49.785156 56.796875 49.804688 56.429688 50.167969 C 56.101562 50.496094 55.949219 51.488281 56.039062 52.105469 C 56.171875 53.015625 56.78125 53.445312 57.65625 53.308594 Z M 57.65625 53.308594 "/>
<path style=" stroke:none;fill-rule:nonzero;fill:rgb(31.764706%,58.039216%,81.176471%);fill-opacity:1;" d="M 88.117188 34.640625 C 87.03125 35.230469 86.210938 34.871094 85.917969 33.757812 C 85.640625 32.695312 86.132812 31.449219 87.011719 31.378906 C 87.480469 31.34375 88.113281 31.703125 88.421875 32.171875 C 88.933594 32.949219 88.722656 33.859375 88.117188 34.640625 Z M 88.117188 34.640625 "/>
<path style=" stroke:none;fill-rule:nonzero;fill:rgb(99.215686%,99.607843%,80.784314%);fill-opacity:1;" d="M 45.824219 42.605469 C 47.3125 41.761719 48.539062 42.269531 49.085938 43.886719 C 49.585938 45.347656 49.125 47.035156 48.039062 47.746094 C 47.078125 48.375 45.808594 47.949219 45.21875 46.800781 C 44.503906 45.398438 44.683594 44.03125 45.824219 42.605469 Z M 45.824219 42.605469 "/>
<path style=" stroke:none;fill-rule:nonzero;fill:rgb(98.823529%,99.607843%,80.784314%);fill-opacity:1;" d="M 57.585938 53.34375 C 56.78125 53.445312 56.171875 53.015625 56.039062 52.105469 C 55.949219 51.488281 56.101562 50.496094 56.429688 50.167969 C 56.796875 49.804688 57.542969 49.785156 58.003906 50.023438 C 58.328125 50.191406 58.683594 51.117188 58.601562 51.578125 C 58.492188 52.21875 57.988281 52.738281 57.585938 53.34375 Z M 57.585938 53.34375 "/>
</g>
</svg>
