<?xml version="1.0" encoding="UTF-8"?>
<svg xmlns="http://www.w3.org/2000/svg" xmlns:xlink="http://www.w3.org/1999/xlink" width="39px" height="39px" viewBox="0 0 39 39" version="1.1">
<g id="surface1">
<path style=" stroke:none;fill-rule:nonzero;fill:rgb(100%,100%,80.392157%);fill-opacity:1;" d="M 22.683594 39.105469 C 15.125 39.105469 7.59375 39.105469 0.0664062 39.105469 C 0.0664062 26.105469 0.0664062 13.105469 0.0664062 0.105469 C 13.066406 0.105469 26.066406 0.105469 39.066406 0.105469 C 39.066406 13.105469 39.066406 26.105469 39.066406 39.105469 C 33.617188 39.105469 28.167969 39.105469 22.683594 39.105469 M 34.117188 18.03125 C 34.121094 18 34.128906 17.96875 34.175781 17.910156 C 34.246094 17.773438 34.363281 17.640625 34.371094 17.492188 C 34.40625 16.832031 34.144531 16.429688 33.71875 16.394531 C 33.03125 15.523438 32.378906 14.628906 32.078125 13.214844 C 31.851562 12.164062 31.378906 11.382812 30.765625 10.855469 C 30.261719 10.425781 29.835938 9.875 29.476562 9.148438 C 29.117188 8.414062 28.699219 7.746094 28.316406 7.039062 C 28.089844 6.625 27.808594 6.480469 27.5 6.65625 C 27.191406 6.835938 27.082031 7.25 27.089844 7.785156 C 27.105469 8.601562 27.113281 9.425781 27.085938 10.242188 C 27.078125 10.5 26.988281 10.820312 26.871094 10.984375 C 26.226562 11.859375 25.558594 12.6875 24.910156 13.550781 C 24.421875 14.195312 23.921875 14.785156 23.210938 14.890625 C 23.082031 14.894531 22.949219 14.902344 22.769531 14.890625 C 22.652344 14.867188 22.535156 14.839844 22.375 14.789062 C 22.328125 14.792969 22.28125 14.796875 22.179688 14.785156 C 22.09375 14.78125 22.007812 14.777344 21.890625 14.730469 C 21.855469 14.722656 21.816406 14.71875 21.726562 14.6875 C 21.546875 14.664062 21.363281 14.636719 21.136719 14.585938 C 21.089844 14.585938 21.042969 14.589844 20.949219 14.574219 C 20.832031 14.550781 20.714844 14.527344 20.550781 14.480469 C 20.484375 14.480469 20.414062 14.484375 20.292969 14.472656 C 20.015625 14.429688 19.738281 14.390625 19.425781 14.300781 C 19.363281 14.292969 19.304688 14.285156 19.191406 14.261719 C 19.050781 14.242188 18.914062 14.222656 18.730469 14.171875 C 18.6875 14.171875 18.640625 14.171875 18.542969 14.15625 C 18.40625 14.128906 18.265625 14.101562 18.085938 14.054688 C 18.039062 14.058594 17.992188 14.0625 17.894531 14.050781 C 17.796875 14.035156 17.699219 14.019531 17.566406 13.972656 C 17.542969 13.972656 17.515625 13.972656 17.433594 13.949219 C 17.253906 13.925781 17.070312 13.90625 16.84375 13.855469 C 16.777344 13.855469 16.710938 13.855469 16.585938 13.84375 C 15.910156 13.847656 15.234375 13.851562 14.507812 13.84375 C 14.429688 13.871094 14.351562 13.902344 14.21875 13.925781 C 14.007812 13.964844 13.789062 13.996094 13.578125 14.050781 C 11.949219 14.472656 10.589844 15.714844 9.609375 17.828125 C 9.078125 18.96875 8.707031 20.316406 8.3125 21.605469 C 7.785156 23.320312 7.207031 24.960938 6.28125 26.210938 C 5.707031 26.976562 5.066406 27.535156 4.375 27.953125 C 4.007812 28.175781 3.925781 28.621094 4.210938 28.949219 C 4.933594 29.78125 5.726562 30.40625 6.640625 30.671875 C 6.679688 30.683594 6.71875 30.691406 6.8125 30.714844 C 7.175781 30.777344 7.539062 30.90625 7.902344 30.886719 C 9.078125 30.824219 10.09375 30.046875 10.988281 28.871094 C 11.417969 28.308594 11.804688 27.664062 12.230469 27.023438 C 12.230469 28.140625 12.230469 29.222656 12.222656 30.367188 C 12.226562 30.414062 12.234375 30.457031 12.242188 30.585938 C 12.304688 31.257812 12.367188 31.933594 12.421875 32.65625 C 12.421875 32.65625 12.433594 32.703125 12.4375 32.78125 C 12.507812 33.59375 12.738281 34.175781 13.324219 34.375 C 13.507812 34.378906 13.695312 34.394531 13.878906 34.382812 C 14.238281 34.359375 14.601562 34.320312 15.011719 34.273438 C 15.054688 34.109375 15.136719 33.949219 15.140625 33.785156 C 15.15625 33.320312 15.136719 32.855469 15.136719 32.328125 C 15.117188 32.28125 15.101562 32.230469 15.078125 32.105469 C 15.015625 31.945312 14.972656 31.695312 14.886719 31.640625 C 14.410156 31.351562 14.496094 30.71875 14.496094 30.128906 C 14.496094 29.621094 14.480469 29.113281 14.503906 28.609375 C 14.511719 28.410156 14.5625 28.164062 14.648438 28.023438 C 15.3125 26.925781 15.988281 25.839844 16.667969 24.769531 C 16.742188 24.652344 16.894531 24.578125 16.996094 24.609375 C 17.484375 24.753906 17.960938 24.945312 18.445312 25.109375 C 19.421875 25.449219 20.398438 25.777344 21.398438 26.160156 C 21.4375 26.171875 21.472656 26.179688 21.5625 26.210938 C 21.828125 26.3125 22.09375 26.417969 22.359375 26.625 C 22.367188 27.878906 22.371094 29.136719 22.386719 30.476562 C 22.445312 31.117188 22.503906 31.757812 22.558594 32.464844 C 22.5625 32.507812 22.570312 32.554688 22.582031 32.675781 C 22.644531 33.46875 22.804688 34.136719 23.414062 34.355469 C 23.976562 34.332031 24.539062 34.3125 25.152344 34.277344 C 25.199219 34.136719 25.28125 33.996094 25.289062 33.851562 C 25.304688 33.417969 25.300781 32.980469 25.289062 32.546875 C 25.28125 32.035156 25.125 31.640625 24.847656 31.417969 C 24.667969 31.277344 24.632812 31.09375 24.632812 30.804688 C 24.640625 29.601562 24.648438 28.398438 24.628906 27.195312 C 24.625 26.839844 24.710938 26.667969 24.886719 26.503906 C 25.800781 25.65625 26.6875 24.734375 27.625 23.949219 C 28.664062 23.070312 29.484375 21.886719 29.980469 20.160156 C 30.160156 19.539062 30.386719 19.136719 30.882812 19.457031 C 30.921875 19.464844 30.960938 19.472656 31.046875 19.496094 C 31.109375 19.503906 31.175781 19.507812 31.265625 19.566406 C 31.308594 19.574219 31.351562 19.582031 31.4375 19.601562 C 31.5 19.605469 31.5625 19.613281 31.648438 19.660156 C 31.667969 19.667969 31.691406 19.671875 31.773438 19.699219 C 31.953125 19.691406 32.128906 19.683594 32.335938 19.683594 C 32.335938 19.683594 32.363281 19.660156 32.410156 19.652344 C 32.820312 19.417969 33.242188 19.238281 33.625 18.925781 C 33.820312 18.765625 33.941406 18.367188 34.09375 18.070312 C 34.09375 18.070312 34.09375 18.0625 34.117188 18.03125 M 28.292969 30.433594 C 27.519531 29.179688 26.75 27.929688 25.980469 26.679688 C 25.820312 26.421875 25.628906 26.265625 25.441406 26.5625 C 25.261719 26.851562 25.332031 27.164062 25.5 27.433594 C 26.332031 28.777344 27.160156 30.136719 28 31.472656 C 28.398438 32.105469 28.957031 32.007812 29.292969 31.289062 C 29.707031 30.402344 29.667969 29.285156 29.191406 28.476562 C 28.601562 27.480469 28.007812 26.488281 27.417969 25.492188 C 27.265625 25.234375 27.105469 25.011719 26.898438 25.332031 C 26.6875 25.65625 26.78125 25.941406 26.953125 26.230469 C 27.519531 27.167969 28.082031 28.109375 28.632812 29.070312 C 28.761719 29.289062 28.898438 29.601562 28.898438 29.867188 C 28.902344 30.171875 28.75 30.476562 28.664062 30.78125 C 28.550781 30.683594 28.4375 30.585938 28.292969 30.433594 M 15.78125 27.496094 C 15.679688 27.714844 15.496094 27.929688 15.488281 28.152344 C 15.457031 29.304688 15.460938 30.457031 15.488281 31.609375 C 15.492188 31.828125 15.625 32.144531 15.75 32.230469 C 16.160156 32.523438 16.199219 32.582031 16.070312 33.335938 C 15.96875 33.335938 15.859375 33.339844 15.753906 33.335938 C 15.546875 33.328125 15.414062 33.488281 15.410156 33.820312 C 15.402344 34.179688 15.539062 34.347656 15.75 34.386719 C 16.738281 34.550781 16.925781 34.246094 16.808594 32.652344 C 16.800781 32.582031 16.800781 32.5 16.777344 32.449219 C 16.636719 32.097656 16.519531 31.699219 16.328125 31.429688 C 16.195312 31.234375 16.121094 31.085938 16.125 30.796875 C 16.136719 29.921875 16.121094 29.046875 16.132812 28.175781 C 16.136719 27.804688 16.058594 27.570312 15.78125 27.496094 Z M 15.78125 27.496094 "/>
<path style=" stroke:none;fill-rule:nonzero;fill:rgb(30.588235%,57.254902%,81.568627%);fill-opacity:1;" d="M 22.566406 32.398438 C 22.503906 31.757812 22.445312 31.117188 22.398438 30.398438 C 22.414062 29.148438 22.421875 27.976562 22.421875 26.804688 C 22.421875 26.710938 22.382812 26.617188 22.359375 26.523438 C 22.09375 26.417969 21.828125 26.3125 21.523438 26.175781 C 21.449219 26.132812 21.410156 26.125 21.375 26.113281 C 20.398438 25.777344 19.421875 25.449219 18.445312 25.109375 C 17.960938 24.945312 17.484375 24.753906 16.996094 24.609375 C 16.894531 24.578125 16.742188 24.652344 16.667969 24.769531 C 15.988281 25.839844 15.3125 26.925781 14.648438 28.023438 C 14.5625 28.164062 14.511719 28.410156 14.503906 28.609375 C 14.480469 29.113281 14.496094 29.621094 14.496094 30.128906 C 14.496094 30.71875 14.410156 31.351562 14.886719 31.640625 C 14.972656 31.695312 15.015625 31.945312 15.082031 32.171875 C 15.097656 32.289062 15.117188 32.339844 15.132812 32.390625 C 15.136719 32.855469 15.15625 33.320312 15.140625 33.785156 C 15.136719 33.949219 15.054688 34.109375 14.953125 34.277344 C 14.355469 34.308594 13.8125 34.328125 13.265625 34.351562 C 12.738281 34.175781 12.507812 33.59375 12.445312 32.730469 C 12.457031 32.648438 12.449219 32.625 12.425781 32.609375 C 12.367188 31.933594 12.304688 31.257812 12.25 30.527344 C 12.25 30.414062 12.242188 30.355469 12.230469 30.300781 C 12.230469 29.222656 12.230469 28.140625 12.230469 27.023438 C 11.804688 27.664062 11.417969 28.308594 10.988281 28.871094 C 10.09375 30.046875 9.078125 30.824219 7.902344 30.886719 C 7.539062 30.90625 7.175781 30.777344 6.769531 30.683594 C 6.695312 30.644531 6.65625 30.632812 6.621094 30.621094 C 5.726562 30.40625 4.933594 29.78125 4.210938 28.949219 C 3.925781 28.621094 4.007812 28.175781 4.375 27.953125 C 5.066406 27.535156 5.707031 26.976562 6.28125 26.210938 C 7.207031 24.960938 7.785156 23.320312 8.3125 21.605469 C 8.707031 20.316406 9.078125 18.96875 9.609375 17.828125 C 10.589844 15.714844 11.949219 14.472656 13.578125 14.050781 C 13.789062 13.996094 14.007812 13.964844 14.273438 13.929688 C 14.402344 13.910156 14.480469 13.882812 14.558594 13.855469 C 15.234375 13.851562 15.910156 13.847656 16.628906 13.871094 C 16.746094 13.894531 16.816406 13.886719 16.890625 13.882812 C 17.070312 13.90625 17.253906 13.925781 17.46875 13.976562 C 17.539062 14.003906 17.570312 14.003906 17.601562 14.003906 C 17.699219 14.019531 17.796875 14.035156 17.929688 14.082031 C 18.023438 14.097656 18.078125 14.085938 18.128906 14.074219 C 18.265625 14.101562 18.40625 14.128906 18.578125 14.1875 C 18.667969 14.210938 18.722656 14.207031 18.777344 14.199219 C 18.914062 14.222656 19.050781 14.242188 19.234375 14.292969 C 19.339844 14.332031 19.398438 14.339844 19.460938 14.351562 C 19.738281 14.390625 20.015625 14.429688 20.335938 14.5 C 20.449219 14.519531 20.523438 14.511719 20.597656 14.503906 C 20.714844 14.527344 20.832031 14.550781 20.984375 14.605469 C 21.074219 14.625 21.128906 14.617188 21.183594 14.609375 C 21.363281 14.636719 21.546875 14.664062 21.769531 14.71875 C 21.847656 14.757812 21.882812 14.765625 21.921875 14.773438 C 22.007812 14.777344 22.09375 14.78125 22.21875 14.8125 C 22.3125 14.832031 22.367188 14.824219 22.417969 14.816406 C 22.535156 14.839844 22.652344 14.867188 22.8125 14.921875 C 22.992188 14.9375 23.128906 14.921875 23.265625 14.90625 C 23.921875 14.785156 24.421875 14.195312 24.910156 13.550781 C 25.558594 12.6875 26.226562 11.859375 26.871094 10.984375 C 26.988281 10.820312 27.078125 10.5 27.085938 10.242188 C 27.113281 9.425781 27.105469 8.601562 27.089844 7.785156 C 27.082031 7.25 27.191406 6.835938 27.5 6.65625 C 27.808594 6.480469 28.089844 6.625 28.316406 7.039062 C 28.699219 7.746094 29.117188 8.414062 29.476562 9.148438 C 29.835938 9.875 30.261719 10.425781 30.765625 10.855469 C 31.378906 11.382812 31.851562 12.164062 32.078125 13.214844 C 32.378906 14.628906 33.03125 15.523438 33.714844 16.457031 C 33.5 16.636719 33.292969 16.757812 33.066406 16.867188 C 32.542969 16.160156 31.953125 15.589844 31.734375 14.480469 C 31.675781 14.1875 31.570312 13.917969 31.488281 13.632812 C 31.253906 12.796875 30.898438 12.144531 30.386719 11.71875 C 29.8125 11.242188 29.347656 10.566406 28.9375 9.761719 C 28.578125 9.050781 28.175781 8.390625 27.78125 7.691406 C 27.765625 7.804688 27.753906 7.890625 27.726562 8.007812 C 27.707031 9.105469 27.699219 10.171875 27.683594 11.265625 C 26.9375 12.253906 26.207031 13.234375 25.457031 14.164062 C 25.03125 14.691406 24.597656 15.222656 24.125 15.605469 C 23.484375 16.125 22.78125 15.988281 22.078125 15.785156 C 21.976562 15.753906 21.894531 15.746094 21.789062 15.742188 C 21.695312 15.746094 21.621094 15.746094 21.558594 15.746094 C 21.683594 16.113281 21.808594 16.457031 22.125 16.324219 C 22.390625 16.214844 22.480469 16.433594 22.46875 16.894531 C 22.464844 17.132812 22.550781 17.445312 22.664062 17.605469 C 22.863281 17.890625 22.886719 18.167969 22.648438 18.394531 C 22.453125 18.585938 22.402344 18.832031 22.453125 19.183594 C 22.511719 19.570312 22.363281 19.734375 22.109375 19.71875 C 21.960938 19.707031 21.769531 19.824219 21.664062 19.996094 C 21.472656 20.304688 21.328125 20.339844 21.164062 19.96875 C 21.046875 19.703125 20.917969 19.589844 20.703125 19.695312 C 20.464844 19.8125 20.316406 19.5625 20.378906 19.152344 C 20.433594 18.800781 20.371094 18.558594 20.179688 18.371094 C 19.957031 18.148438 19.949219 17.847656 20.171875 17.640625 C 20.371094 17.457031 20.433594 17.222656 20.378906 16.867188 C 20.320312 16.46875 20.46875 16.210938 20.703125 16.308594 C 21.011719 16.433594 21.164062 16.210938 21.246094 15.691406 C 21.0625 15.660156 20.898438 15.625 20.714844 15.574219 C 20.664062 15.542969 20.625 15.535156 20.5625 15.527344 C 20.449219 15.519531 20.363281 15.507812 20.265625 15.476562 C 20.199219 15.464844 20.144531 15.476562 20.066406 15.484375 C 19.925781 15.453125 19.808594 15.421875 19.671875 15.367188 C 19.570312 15.335938 19.484375 15.324219 19.375 15.324219 C 19.222656 15.316406 19.101562 15.300781 18.960938 15.265625 C 18.882812 15.230469 18.824219 15.222656 18.734375 15.214844 C 18.429688 15.167969 18.152344 15.125 17.859375 15.054688 C 17.769531 15.042969 17.695312 15.054688 17.597656 15.0625 C 17.453125 15.03125 17.339844 15.003906 17.210938 14.953125 C 17.144531 14.9375 17.089844 14.945312 17.011719 14.953125 C 16.738281 14.925781 16.492188 14.894531 16.230469 14.839844 C 16.097656 14.828125 15.984375 14.835938 15.84375 14.847656 C 15.734375 14.839844 15.65625 14.832031 15.558594 14.808594 C 15.320312 14.816406 15.105469 14.839844 14.859375 14.871094 C 14.644531 14.886719 14.453125 14.894531 14.242188 14.898438 C 14.183594 14.921875 14.144531 14.945312 14.085938 14.980469 C 13.964844 15.011719 13.867188 15.035156 13.761719 15.042969 C 13.695312 15.042969 13.640625 15.0625 13.5625 15.089844 C 13.476562 15.132812 13.417969 15.171875 13.355469 15.195312 C 11.773438 15.773438 10.546875 17.167969 9.71875 19.410156 C 9.351562 20.40625 9.066406 21.476562 8.765625 22.527344 C 8.71875 22.683594 8.761719 22.917969 8.789062 23.105469 C 8.890625 23.773438 9 24.4375 9.105469 25.144531 C 9.121094 25.355469 9.136719 25.515625 9.160156 25.726562 C 9.144531 26.019531 9.199219 26.171875 9.390625 26.167969 C 9.542969 26.164062 9.679688 26.144531 9.839844 26.117188 C 9.988281 26.101562 10.113281 26.097656 10.261719 26.09375 C 10.367188 26.070312 10.449219 26.042969 10.554688 26.007812 C 10.964844 25.847656 11.347656 25.707031 11.730469 25.542969 C 12.023438 25.414062 12.238281 25.125 12.347656 24.648438 C 12.570312 23.699219 12.789062 22.75 13.027344 21.765625 C 13.050781 20.949219 13.054688 20.164062 13.0625 19.347656 C 13.128906 19.210938 13.199219 19.109375 13.285156 19.03125 C 13.359375 19.058594 13.417969 19.0625 13.503906 19.074219 C 13.570312 19.195312 13.652344 19.304688 13.652344 19.417969 C 13.660156 20.304688 13.734375 21.21875 13.628906 22.074219 C 13.425781 23.75 13.121094 25.394531 12.84375 27.085938 C 12.820312 27.617188 12.800781 28.117188 12.808594 28.613281 C 12.8125 29.136719 12.839844 29.664062 12.863281 30.230469 C 12.894531 30.589844 12.917969 30.90625 12.9375 31.253906 C 12.953125 31.339844 12.972656 31.394531 12.992188 31.488281 C 13 31.664062 13.003906 31.800781 13.003906 31.976562 C 13.019531 32.105469 13.035156 32.195312 13.058594 32.328125 C 13.097656 32.722656 13.078125 33.214844 13.339844 33.269531 C 13.714844 33.34375 14.105469 33.246094 14.488281 33.21875 C 14.496094 33.21875 14.5 33.15625 14.519531 33.097656 C 14.527344 32.917969 14.515625 32.761719 14.496094 32.574219 C 14.398438 32.453125 14.308594 32.375 14.226562 32.285156 C 14.105469 32.148438 13.984375 32.003906 13.878906 31.824219 C 13.898438 31.183594 13.914062 30.574219 13.90625 29.96875 C 13.902344 29.277344 13.882812 28.589844 13.871094 27.863281 C 14.703125 26.484375 15.539062 25.140625 16.355469 23.777344 C 16.535156 23.476562 16.714844 23.402344 16.957031 23.488281 C 18.84375 24.164062 20.730469 24.824219 22.613281 25.507812 C 22.75 25.558594 22.867188 25.765625 22.984375 25.910156 C 22.96875 25.957031 22.976562 25.980469 23.003906 26.046875 C 23.03125 27.765625 23.058594 29.433594 23.082031 31.136719 C 23.097656 31.226562 23.113281 31.285156 23.132812 31.378906 C 23.152344 31.574219 23.164062 31.730469 23.167969 31.90625 C 23.167969 32.015625 23.179688 32.097656 23.199219 32.222656 C 23.304688 33.308594 23.328125 33.335938 23.976562 33.335938 C 24.195312 33.335938 24.410156 33.335938 24.644531 33.308594 C 24.65625 33.023438 24.648438 32.765625 24.628906 32.472656 C 24.519531 32.386719 24.417969 32.355469 24.332031 32.273438 C 24.230469 32.167969 24.140625 32.019531 24.046875 31.839844 C 24.046875 30.382812 24.050781 28.976562 24.046875 27.566406 C 24.046875 27.15625 24.023438 26.742188 24.019531 26.296875 C 24.144531 26.09375 24.25 25.894531 24.386719 25.765625 C 25.527344 24.675781 26.667969 23.585938 27.820312 22.523438 C 28.378906 22.003906 28.8125 21.308594 29.132812 20.414062 C 29.398438 19.675781 29.683594 18.960938 29.988281 18.238281 C 30.074219 18.234375 30.132812 18.230469 30.214844 18.226562 C 30.300781 18.238281 30.363281 18.25 30.4375 18.285156 C 30.492188 18.316406 30.53125 18.324219 30.601562 18.335938 C 30.925781 18.414062 31.226562 18.496094 31.542969 18.597656 C 31.605469 18.628906 31.648438 18.640625 31.71875 18.644531 C 32.304688 18.734375 32.804688 18.46875 33.304688 18.050781 C 33.4375 18.097656 33.550781 18.148438 33.664062 18.148438 C 33.808594 18.144531 33.949219 18.101562 34.09375 18.078125 C 33.941406 18.367188 33.820312 18.765625 33.625 18.925781 C 33.242188 19.238281 32.820312 19.417969 32.378906 19.648438 C 32.332031 19.636719 32.316406 19.648438 32.308594 19.675781 C 32.128906 19.683594 31.953125 19.691406 31.730469 19.671875 C 31.667969 19.632812 31.644531 19.625 31.625 19.617188 C 31.5625 19.613281 31.5 19.605469 31.398438 19.570312 C 31.320312 19.53125 31.277344 19.523438 31.238281 19.515625 C 31.175781 19.507812 31.109375 19.503906 31.011719 19.464844 C 30.933594 19.425781 30.890625 19.417969 30.851562 19.40625 C 30.386719 19.136719 30.160156 19.539062 29.980469 20.160156 C 29.484375 21.886719 28.664062 23.070312 27.625 23.949219 C 26.6875 24.734375 25.800781 25.65625 24.886719 26.503906 C 24.710938 26.667969 24.625 26.839844 24.628906 27.195312 C 24.648438 28.398438 24.640625 29.601562 24.632812 30.804688 C 24.632812 31.09375 24.667969 31.277344 24.847656 31.417969 C 25.125 31.640625 25.28125 32.035156 25.289062 32.546875 C 25.300781 32.980469 25.304688 33.417969 25.289062 33.851562 C 25.28125 33.996094 25.199219 34.136719 25.09375 34.28125 C 24.484375 34.289062 23.925781 34.292969 23.371094 34.296875 C 22.804688 34.136719 22.644531 33.46875 22.589844 32.617188 C 22.585938 32.507812 22.574219 32.453125 22.566406 32.398438 M 10.300781 27.050781 C 10.246094 27.078125 10.195312 27.101562 10.085938 27.148438 C 9.707031 27.171875 9.332031 27.21875 8.953125 27.222656 C 8.617188 27.222656 8.53125 27.035156 8.511719 26.496094 C 8.480469 25.660156 8.425781 24.824219 8.378906 23.988281 C 8.347656 23.984375 8.3125 23.980469 8.277344 23.972656 C 7.554688 26.046875 6.503906 27.5625 5.171875 28.585938 C 5.171875 28.644531 5.171875 28.707031 5.175781 28.765625 C 5.726562 29.074219 6.277344 29.378906 6.863281 29.734375 C 6.925781 29.742188 6.988281 29.753906 7.097656 29.761719 C 7.160156 29.773438 7.21875 29.78125 7.316406 29.839844 C 7.429688 29.835938 7.542969 29.828125 7.710938 29.8125 C 7.765625 29.816406 7.820312 29.820312 7.910156 29.855469 C 8.003906 29.835938 8.09375 29.8125 8.242188 29.777344 C 9.515625 29.441406 10.523438 28.371094 11.390625 26.820312 C 11.382812 26.796875 11.378906 26.777344 11.375 26.757812 C 11.355469 26.777344 11.332031 26.800781 11.269531 26.835938 C 11.214844 26.855469 11.160156 26.875 11.082031 26.867188 C 11.050781 26.886719 11.019531 26.90625 10.941406 26.941406 C 10.867188 26.960938 10.792969 26.984375 10.703125 26.988281 C 10.683594 26.980469 10.671875 26.992188 10.609375 27.042969 C 10.519531 27.046875 10.429688 27.050781 10.300781 27.050781 M 21.5625 17.261719 C 21.386719 17.34375 21.171875 17.351562 21.054688 17.53125 C 20.964844 17.679688 20.945312 18.050781 20.984375 18.285156 C 21.042969 18.652344 21.25 18.882812 21.484375 18.75 C 21.644531 18.65625 21.824219 18.417969 21.882812 18.171875 C 21.96875 17.804688 21.855469 17.460938 21.5625 17.261719 M 21.414062 15.761719 C 21.410156 15.753906 21.40625 15.746094 21.414062 15.761719 Z M 21.414062 15.761719 "/>
<path style=" stroke:none;fill-rule:nonzero;fill:rgb(30.980392%,57.254902%,81.176471%);fill-opacity:1;" d="M 28.308594 30.457031 C 28.4375 30.585938 28.550781 30.683594 28.664062 30.78125 C 28.75 30.476562 28.902344 30.171875 28.898438 29.867188 C 28.898438 29.601562 28.761719 29.289062 28.632812 29.070312 C 28.082031 28.109375 27.519531 27.167969 26.953125 26.230469 C 26.78125 25.941406 26.6875 25.65625 26.898438 25.332031 C 27.105469 25.011719 27.265625 25.234375 27.417969 25.492188 C 28.007812 26.488281 28.601562 27.480469 29.191406 28.476562 C 29.667969 29.285156 29.707031 30.402344 29.292969 31.289062 C 28.957031 32.007812 28.398438 32.105469 28 31.472656 C 27.160156 30.136719 26.332031 28.777344 25.5 27.433594 C 25.332031 27.164062 25.261719 26.851562 25.441406 26.5625 C 25.628906 26.265625 25.820312 26.421875 25.980469 26.679688 C 26.75 27.929688 27.519531 29.179688 28.308594 30.457031 Z M 28.308594 30.457031 "/>
<path style=" stroke:none;fill-rule:nonzero;fill:rgb(31.372549%,57.647059%,81.176471%);fill-opacity:1;" d="M 15.804688 27.492188 C 16.058594 27.570312 16.136719 27.804688 16.132812 28.175781 C 16.121094 29.046875 16.136719 29.921875 16.125 30.796875 C 16.121094 31.085938 16.195312 31.234375 16.328125 31.429688 C 16.519531 31.699219 16.636719 32.097656 16.777344 32.449219 C 16.800781 32.5 16.800781 32.582031 16.808594 32.652344 C 16.925781 34.246094 16.738281 34.550781 15.75 34.386719 C 15.539062 34.347656 15.402344 34.179688 15.410156 33.820312 C 15.414062 33.488281 15.546875 33.328125 15.753906 33.335938 C 15.859375 33.339844 15.96875 33.335938 16.070312 33.335938 C 16.199219 32.582031 16.160156 32.523438 15.75 32.230469 C 15.625 32.144531 15.492188 31.828125 15.488281 31.609375 C 15.460938 30.457031 15.457031 29.304688 15.488281 28.152344 C 15.496094 27.929688 15.679688 27.714844 15.804688 27.492188 Z M 15.804688 27.492188 "/>
<path style=" stroke:none;fill-rule:nonzero;fill:rgb(18.823529%,46.666667%,71.372549%);fill-opacity:1;" d="M 33.085938 16.878906 C 33.292969 16.757812 33.5 16.636719 33.722656 16.488281 C 34.144531 16.429688 34.40625 16.832031 34.371094 17.492188 C 34.363281 17.640625 34.246094 17.773438 34.140625 17.933594 C 34.097656 17.992188 34.097656 18.027344 34.09375 18.0625 C 34.09375 18.0625 34.09375 18.070312 34.09375 18.074219 C 33.949219 18.101562 33.808594 18.144531 33.664062 18.148438 C 33.550781 18.148438 33.4375 18.097656 33.304688 18.011719 C 33.214844 17.59375 33.152344 17.238281 33.085938 16.878906 Z M 33.085938 16.878906 "/>
<path style=" stroke:none;fill-rule:nonzero;fill:rgb(30.980392%,57.254902%,81.176471%);fill-opacity:1;" d="M 22.359375 26.574219 C 22.382812 26.617188 22.421875 26.710938 22.421875 26.804688 C 22.421875 27.976562 22.414062 29.148438 22.394531 30.355469 C 22.371094 29.136719 22.367188 27.878906 22.359375 26.574219 Z M 22.359375 26.574219 "/>
<path style=" stroke:none;fill-rule:nonzero;fill:rgb(30.980392%,57.254902%,81.176471%);fill-opacity:1;" d="M 23.390625 34.324219 C 23.925781 34.292969 24.484375 34.289062 25.070312 34.289062 C 24.539062 34.3125 23.976562 34.332031 23.390625 34.324219 Z M 23.390625 34.324219 "/>
<path style=" stroke:none;fill-rule:nonzero;fill:rgb(30.980392%,57.254902%,81.176471%);fill-opacity:1;" d="M 13.296875 34.363281 C 13.8125 34.328125 14.355469 34.308594 14.929688 34.289062 C 14.601562 34.320312 14.238281 34.359375 13.878906 34.382812 C 13.695312 34.394531 13.507812 34.378906 13.296875 34.363281 Z M 13.296875 34.363281 "/>
<path style=" stroke:none;fill-rule:nonzero;fill:rgb(30.980392%,57.254902%,81.176471%);fill-opacity:1;" d="M 23.238281 14.898438 C 23.128906 14.921875 22.992188 14.9375 22.835938 14.929688 C 22.949219 14.902344 23.082031 14.894531 23.238281 14.898438 Z M 23.238281 14.898438 "/>
<path style=" stroke:none;fill-rule:nonzero;fill:rgb(30.980392%,57.254902%,81.176471%);fill-opacity:1;" d="M 14.53125 13.851562 C 14.480469 13.882812 14.402344 13.910156 14.300781 13.933594 C 14.351562 13.902344 14.429688 13.871094 14.53125 13.851562 Z M 14.53125 13.851562 "/>
<path style=" stroke:none;fill-rule:nonzero;fill:rgb(30.980392%,57.254902%,81.176471%);fill-opacity:1;" d="M 16.867188 13.867188 C 16.816406 13.886719 16.746094 13.894531 16.65625 13.878906 C 16.710938 13.855469 16.777344 13.855469 16.867188 13.867188 Z M 16.867188 13.867188 "/>
<path style=" stroke:none;fill-rule:nonzero;fill:rgb(30.980392%,57.254902%,81.176471%);fill-opacity:1;" d="M 20.574219 14.492188 C 20.523438 14.511719 20.449219 14.519531 20.363281 14.507812 C 20.414062 14.484375 20.484375 14.480469 20.574219 14.492188 Z M 20.574219 14.492188 "/>
<path style=" stroke:none;fill-rule:nonzero;fill:rgb(30.980392%,57.254902%,81.176471%);fill-opacity:1;" d="M 18.109375 14.066406 C 18.078125 14.085938 18.023438 14.097656 17.957031 14.085938 C 17.992188 14.0625 18.039062 14.058594 18.109375 14.066406 Z M 18.109375 14.066406 "/>
<path style=" stroke:none;fill-rule:nonzero;fill:rgb(30.980392%,57.254902%,81.176471%);fill-opacity:1;" d="M 18.753906 14.1875 C 18.722656 14.207031 18.667969 14.210938 18.605469 14.191406 C 18.640625 14.171875 18.6875 14.171875 18.753906 14.1875 Z M 18.753906 14.1875 "/>
<path style=" stroke:none;fill-rule:nonzero;fill:rgb(30.980392%,57.254902%,81.176471%);fill-opacity:1;" d="M 19.441406 14.324219 C 19.398438 14.339844 19.339844 14.332031 19.261719 14.300781 C 19.304688 14.285156 19.363281 14.292969 19.441406 14.324219 Z M 19.441406 14.324219 "/>
<path style=" stroke:none;fill-rule:nonzero;fill:rgb(30.980392%,57.254902%,81.176471%);fill-opacity:1;" d="M 21.160156 14.597656 C 21.128906 14.617188 21.074219 14.625 21.011719 14.613281 C 21.042969 14.589844 21.089844 14.585938 21.160156 14.597656 Z M 21.160156 14.597656 "/>
<path style=" stroke:none;fill-rule:nonzero;fill:rgb(30.980392%,57.254902%,81.176471%);fill-opacity:1;" d="M 22.398438 14.800781 C 22.367188 14.824219 22.3125 14.832031 22.246094 14.820312 C 22.28125 14.796875 22.328125 14.792969 22.398438 14.800781 Z M 22.398438 14.800781 "/>
<path style=" stroke:none;fill-rule:nonzero;fill:rgb(30.980392%,57.254902%,81.176471%);fill-opacity:1;" d="M 6.632812 30.648438 C 6.65625 30.632812 6.695312 30.644531 6.742188 30.675781 C 6.71875 30.691406 6.679688 30.683594 6.632812 30.648438 Z M 6.632812 30.648438 "/>
<path style=" stroke:none;fill-rule:nonzero;fill:rgb(30.980392%,57.254902%,81.176471%);fill-opacity:1;" d="M 12.226562 30.335938 C 12.242188 30.355469 12.25 30.414062 12.25 30.484375 C 12.234375 30.457031 12.226562 30.414062 12.226562 30.335938 Z M 12.226562 30.335938 "/>
<path style=" stroke:none;fill-rule:nonzero;fill:rgb(30.980392%,57.254902%,81.176471%);fill-opacity:1;" d="M 15.136719 32.359375 C 15.117188 32.339844 15.097656 32.289062 15.082031 32.210938 C 15.101562 32.230469 15.117188 32.28125 15.136719 32.359375 Z M 15.136719 32.359375 "/>
<path style=" stroke:none;fill-rule:nonzero;fill:rgb(30.980392%,57.254902%,81.176471%);fill-opacity:1;" d="M 22.5625 32.433594 C 22.574219 32.453125 22.585938 32.507812 22.585938 32.578125 C 22.570312 32.554688 22.5625 32.507812 22.5625 32.433594 Z M 22.5625 32.433594 "/>
<path style=" stroke:none;fill-rule:nonzero;fill:rgb(30.980392%,57.254902%,81.176471%);fill-opacity:1;" d="M 30.867188 19.433594 C 30.890625 19.417969 30.933594 19.425781 30.988281 19.457031 C 30.960938 19.472656 30.921875 19.464844 30.867188 19.433594 Z M 30.867188 19.433594 "/>
<path style=" stroke:none;fill-rule:nonzero;fill:rgb(30.980392%,57.254902%,81.176471%);fill-opacity:1;" d="M 17.585938 13.988281 C 17.570312 14.003906 17.539062 14.003906 17.496094 13.988281 C 17.515625 13.972656 17.542969 13.972656 17.585938 13.988281 Z M 17.585938 13.988281 "/>
<path style=" stroke:none;fill-rule:nonzero;fill:rgb(30.980392%,57.254902%,81.176471%);fill-opacity:1;" d="M 21.386719 26.136719 C 21.410156 26.125 21.449219 26.132812 21.496094 26.167969 C 21.472656 26.179688 21.4375 26.171875 21.386719 26.136719 Z M 21.386719 26.136719 "/>
<path style=" stroke:none;fill-rule:nonzero;fill:rgb(30.980392%,57.254902%,81.176471%);fill-opacity:1;" d="M 21.90625 14.753906 C 21.882812 14.765625 21.847656 14.757812 21.796875 14.730469 C 21.816406 14.71875 21.855469 14.722656 21.90625 14.753906 Z M 21.90625 14.753906 "/>
<path style=" stroke:none;fill-rule:nonzero;fill:rgb(30.980392%,57.254902%,81.176471%);fill-opacity:1;" d="M 31.25 19.539062 C 31.277344 19.523438 31.320312 19.53125 31.375 19.5625 C 31.351562 19.582031 31.308594 19.574219 31.25 19.539062 Z M 31.25 19.539062 "/>
<path style=" stroke:none;fill-rule:nonzero;fill:rgb(30.588235%,57.254902%,81.568627%);fill-opacity:1;" d="M 34.105469 18.046875 C 34.097656 18.027344 34.097656 17.992188 34.117188 17.945312 C 34.128906 17.96875 34.121094 18 34.105469 18.046875 Z M 34.105469 18.046875 "/>
<path style=" stroke:none;fill-rule:nonzero;fill:rgb(30.980392%,57.254902%,81.176471%);fill-opacity:1;" d="M 12.425781 32.632812 C 12.449219 32.625 12.457031 32.648438 12.441406 32.691406 C 12.433594 32.703125 12.421875 32.65625 12.425781 32.632812 Z M 12.425781 32.632812 "/>
<path style=" stroke:none;fill-rule:nonzero;fill:rgb(30.980392%,57.254902%,81.176471%);fill-opacity:1;" d="M 32.324219 19.679688 C 32.316406 19.648438 32.332031 19.636719 32.355469 19.652344 C 32.363281 19.660156 32.335938 19.683594 32.324219 19.679688 Z M 32.324219 19.679688 "/>
<path style=" stroke:none;fill-rule:nonzero;fill:rgb(30.980392%,57.254902%,81.176471%);fill-opacity:1;" d="M 31.636719 19.640625 C 31.644531 19.625 31.667969 19.632812 31.703125 19.660156 C 31.691406 19.671875 31.667969 19.667969 31.636719 19.640625 Z M 31.636719 19.640625 "/>
<path style=" stroke:none;fill-rule:nonzero;fill:rgb(99.607843%,100%,80.392157%);fill-opacity:1;" d="M 33.066406 16.867188 C 33.152344 17.238281 33.214844 17.59375 33.28125 17.992188 C 32.804688 18.46875 32.304688 18.734375 31.703125 18.621094 C 31.613281 18.589844 31.570312 18.582031 31.527344 18.574219 C 31.226562 18.496094 30.925781 18.414062 30.585938 18.3125 C 30.503906 18.28125 30.464844 18.269531 30.421875 18.261719 C 30.363281 18.25 30.300781 18.238281 30.199219 18.203125 C 30.09375 18.195312 30.027344 18.21875 29.960938 18.238281 C 29.683594 18.960938 29.398438 19.675781 29.132812 20.414062 C 28.8125 21.308594 28.378906 22.003906 27.820312 22.523438 C 26.667969 23.585938 25.527344 24.675781 24.386719 25.765625 C 24.25 25.894531 24.144531 26.09375 24.007812 26.339844 C 23.992188 28.113281 23.988281 29.808594 23.992188 31.5 C 23.992188 31.632812 24.027344 31.761719 24.046875 31.890625 C 24.140625 32.019531 24.230469 32.167969 24.332031 32.273438 C 24.417969 32.355469 24.519531 32.386719 24.625 32.519531 C 24.632812 32.84375 24.628906 33.089844 24.625 33.335938 C 24.410156 33.335938 24.195312 33.335938 23.976562 33.335938 C 23.328125 33.335938 23.304688 33.308594 23.203125 32.1875 C 23.191406 32.03125 23.183594 31.957031 23.175781 31.886719 C 23.164062 31.730469 23.152344 31.574219 23.136719 31.347656 C 23.117188 31.21875 23.097656 31.160156 23.082031 31.105469 C 23.058594 29.433594 23.03125 27.765625 23.007812 26.019531 C 23.003906 25.949219 22.992188 25.898438 22.992188 25.898438 C 22.867188 25.765625 22.75 25.558594 22.613281 25.507812 C 20.730469 24.824219 18.84375 24.164062 16.957031 23.488281 C 16.714844 23.402344 16.535156 23.476562 16.355469 23.777344 C 15.539062 25.140625 14.703125 26.484375 13.863281 27.910156 C 13.855469 29.28125 13.859375 30.570312 13.863281 31.859375 C 13.984375 32.003906 14.105469 32.148438 14.226562 32.285156 C 14.308594 32.375 14.398438 32.453125 14.492188 32.617188 C 14.5 32.835938 14.503906 32.980469 14.507812 33.125 C 14.5 33.15625 14.496094 33.21875 14.488281 33.21875 C 14.105469 33.246094 13.714844 33.34375 13.339844 33.269531 C 13.078125 33.214844 13.097656 32.722656 13.0625 32.292969 C 13.042969 32.121094 13.023438 32.03125 13.007812 31.941406 C 13.003906 31.800781 13 31.664062 12.996094 31.457031 C 12.972656 31.332031 12.957031 31.277344 12.9375 31.226562 C 12.917969 30.90625 12.894531 30.589844 12.867188 30.183594 C 12.863281 29.078125 12.863281 28.066406 12.859375 27.054688 C 13.121094 25.394531 13.425781 23.75 13.628906 22.074219 C 13.734375 21.21875 13.660156 20.304688 13.652344 19.417969 C 13.652344 19.304688 13.570312 19.195312 13.488281 19.046875 C 13.386719 19.011719 13.324219 19.011719 13.265625 19.011719 C 13.199219 19.109375 13.128906 19.210938 13.042969 19.382812 C 13.023438 20.234375 13.015625 21.015625 13.011719 21.800781 C 12.789062 22.75 12.570312 23.699219 12.347656 24.648438 C 12.238281 25.125 12.023438 25.414062 11.730469 25.542969 C 11.347656 25.707031 10.964844 25.847656 10.527344 26.003906 C 10.398438 26.035156 10.316406 26.0625 10.234375 26.09375 C 10.113281 26.097656 9.988281 26.101562 9.8125 26.109375 C 9.628906 26.125 9.5 26.136719 9.371094 26.152344 C 9.199219 26.171875 9.144531 26.019531 9.164062 25.683594 C 9.144531 25.429688 9.125 25.265625 9.105469 25.101562 C 9 24.4375 8.890625 23.773438 8.789062 23.105469 C 8.761719 22.917969 8.71875 22.683594 8.765625 22.527344 C 9.066406 21.476562 9.351562 20.40625 9.71875 19.410156 C 10.546875 17.167969 11.773438 15.773438 13.355469 15.195312 C 13.417969 15.171875 13.476562 15.132812 13.585938 15.097656 C 13.679688 15.082031 13.726562 15.070312 13.773438 15.0625 C 13.867188 15.035156 13.964844 15.011719 14.105469 14.984375 C 14.1875 14.953125 14.226562 14.929688 14.265625 14.902344 C 14.453125 14.894531 14.644531 14.886719 14.890625 14.878906 C 15.160156 14.855469 15.371094 14.839844 15.582031 14.820312 C 15.65625 14.832031 15.734375 14.839844 15.867188 14.859375 C 16.03125 14.867188 16.136719 14.863281 16.246094 14.863281 C 16.492188 14.894531 16.738281 14.925781 17.03125 14.96875 C 17.128906 14.976562 17.175781 14.976562 17.222656 14.972656 C 17.339844 15.003906 17.453125 15.03125 17.621094 15.074219 C 17.738281 15.082031 17.804688 15.082031 17.871094 15.078125 C 18.152344 15.125 18.429688 15.167969 18.753906 15.238281 C 18.859375 15.269531 18.917969 15.277344 18.976562 15.289062 C 19.101562 15.300781 19.222656 15.316406 19.394531 15.351562 C 19.523438 15.378906 19.609375 15.386719 19.691406 15.394531 C 19.808594 15.421875 19.925781 15.453125 20.085938 15.496094 C 20.183594 15.503906 20.230469 15.503906 20.277344 15.5 C 20.363281 15.507812 20.449219 15.519531 20.574219 15.550781 C 20.652344 15.578125 20.691406 15.585938 20.730469 15.59375 C 20.898438 15.625 21.0625 15.660156 21.246094 15.691406 C 21.164062 16.210938 21.011719 16.433594 20.703125 16.308594 C 20.46875 16.210938 20.320312 16.46875 20.378906 16.867188 C 20.433594 17.222656 20.371094 17.457031 20.171875 17.640625 C 19.949219 17.847656 19.957031 18.148438 20.179688 18.371094 C 20.371094 18.558594 20.433594 18.800781 20.378906 19.152344 C 20.316406 19.5625 20.464844 19.8125 20.703125 19.695312 C 20.917969 19.589844 21.046875 19.703125 21.164062 19.96875 C 21.328125 20.339844 21.472656 20.304688 21.664062 19.996094 C 21.769531 19.824219 21.960938 19.707031 22.109375 19.71875 C 22.363281 19.734375 22.511719 19.570312 22.453125 19.183594 C 22.402344 18.832031 22.453125 18.585938 22.648438 18.394531 C 22.886719 18.167969 22.863281 17.890625 22.664062 17.605469 C 22.550781 17.445312 22.464844 17.132812 22.46875 16.894531 C 22.480469 16.433594 22.390625 16.214844 22.125 16.324219 C 21.808594 16.457031 21.683594 16.113281 21.558594 15.746094 C 21.621094 15.746094 21.695312 15.746094 21.808594 15.769531 C 21.933594 15.800781 22.015625 15.804688 22.097656 15.8125 C 22.78125 15.988281 23.484375 16.125 24.125 15.605469 C 24.597656 15.222656 25.03125 14.691406 25.457031 14.164062 C 26.207031 13.234375 26.9375 12.253906 27.703125 11.234375 C 27.738281 10.105469 27.742188 9.039062 27.742188 7.972656 C 27.753906 7.890625 27.765625 7.804688 27.78125 7.691406 C 28.175781 8.390625 28.578125 9.050781 28.9375 9.761719 C 29.347656 10.566406 29.8125 11.242188 30.386719 11.71875 C 30.898438 12.144531 31.253906 12.796875 31.488281 13.632812 C 31.570312 13.917969 31.675781 14.1875 31.734375 14.480469 C 31.953125 15.589844 32.542969 16.160156 33.066406 16.867188 M 16.460938 15.519531 C 16.273438 15.503906 16.117188 15.492188 16.015625 15.863281 C 15.859375 16.457031 15.621094 16.554688 15.214844 16.421875 C 15.089844 16.378906 14.933594 16.53125 14.800781 16.640625 C 14.640625 16.773438 14.648438 16.996094 14.703125 17.257812 C 14.828125 17.839844 14.726562 18.273438 14.382812 18.527344 C 14.203125 18.660156 14.164062 18.835938 14.164062 19.128906 C 14.160156 19.429688 14.214844 19.597656 14.390625 19.726562 C 14.71875 19.964844 14.832031 20.386719 14.714844 20.914062 C 14.644531 21.230469 14.675781 21.433594 14.828125 21.6875 C 14.984375 21.949219 15.121094 21.886719 15.289062 21.796875 C 15.578125 21.644531 15.867188 21.824219 15.996094 22.28125 C 16.082031 22.585938 16.203125 22.667969 16.398438 22.667969 C 16.585938 22.664062 16.695312 22.582031 16.773438 22.300781 C 16.910156 21.824219 17.210938 21.621094 17.511719 21.816406 C 17.707031 21.941406 17.824219 21.863281 17.960938 21.636719 C 18.089844 21.425781 18.136719 21.253906 18.070312 20.957031 C 17.941406 20.40625 18.050781 19.957031 18.375 19.722656 C 18.558594 19.589844 18.597656 19.410156 18.59375 19.117188 C 18.59375 18.835938 18.570312 18.640625 18.378906 18.511719 C 18.046875 18.28125 17.9375 17.820312 18.058594 17.28125 C 18.113281 17.023438 18.117188 16.839844 17.976562 16.644531 C 17.839844 16.460938 17.742188 16.277344 17.527344 16.40625 C 17.171875 16.621094 16.933594 16.425781 16.75 15.886719 C 16.699219 15.738281 16.59375 15.640625 16.460938 15.519531 M 19.195312 20.132812 C 18.957031 20.144531 18.867188 20.285156 18.898438 20.714844 C 18.914062 20.945312 18.808594 21.253906 18.699219 21.441406 C 18.550781 21.703125 18.515625 22 18.707031 22.199219 C 18.902344 22.402344 18.941406 22.664062 18.902344 23.003906 C 18.859375 23.394531 18.984375 23.519531 19.246094 23.519531 C 19.402344 23.519531 19.59375 23.648438 19.703125 23.828125 C 19.894531 24.132812 20.050781 24.1875 20.1875 23.835938 C 20.308594 23.519531 20.460938 23.4375 20.675781 23.519531 C 20.914062 23.605469 21.042969 23.386719 21 22.976562 C 20.964844 22.65625 21 22.410156 21.1875 22.21875 C 21.390625 22.011719 21.355469 21.714844 21.191406 21.433594 C 21.082031 21.253906 21.007812 20.949219 21.007812 20.699219 C 21.011719 20.304688 20.910156 20.058594 20.667969 20.148438 C 20.449219 20.234375 20.304688 20.164062 20.1875 19.84375 C 20.058594 19.484375 19.875 19.542969 19.691406 19.859375 C 19.59375 20.027344 19.398438 20.054688 19.195312 20.132812 M 30.707031 14.664062 C 30.894531 14.355469 30.96875 13.96875 30.789062 13.636719 C 30.683594 13.4375 30.460938 13.285156 30.296875 13.300781 C 29.992188 13.332031 29.820312 13.859375 29.917969 14.308594 C 30.019531 14.78125 30.304688 14.933594 30.707031 14.664062 Z M 30.707031 14.664062 "/>
<path style=" stroke:none;fill-rule:nonzero;fill:rgb(99.607843%,99.607843%,80.784314%);fill-opacity:1;" d="M 6.828125 29.6875 C 6.277344 29.378906 5.726562 29.074219 5.175781 28.765625 C 5.171875 28.707031 5.171875 28.644531 5.171875 28.585938 C 6.503906 27.5625 7.554688 26.046875 8.277344 23.972656 C 8.3125 23.980469 8.347656 23.984375 8.378906 23.988281 C 8.425781 24.824219 8.480469 25.660156 8.511719 26.496094 C 8.53125 27.035156 8.617188 27.222656 8.953125 27.222656 C 9.332031 27.21875 9.707031 27.171875 10.136719 27.144531 C 10.238281 27.109375 10.289062 27.082031 10.34375 27.050781 C 10.429688 27.050781 10.519531 27.046875 10.652344 27.039062 C 10.691406 27.03125 10.71875 27.007812 10.71875 27.007812 C 10.792969 26.984375 10.867188 26.960938 10.984375 26.9375 C 11.054688 26.921875 11.082031 26.910156 11.105469 26.894531 C 11.160156 26.875 11.214844 26.855469 11.304688 26.835938 C 11.339844 26.835938 11.367188 26.84375 11.367188 26.84375 C 10.523438 28.371094 9.515625 29.441406 8.1875 29.777344 C 8.046875 29.796875 7.960938 29.808594 7.875 29.824219 C 7.820312 29.820312 7.765625 29.816406 7.660156 29.804688 C 7.5 29.796875 7.390625 29.792969 7.28125 29.792969 C 7.21875 29.78125 7.160156 29.773438 7.054688 29.734375 C 6.953125 29.699219 6.890625 29.691406 6.828125 29.6875 Z M 6.828125 29.6875 "/>
<path style=" stroke:none;fill-rule:nonzero;fill:rgb(98.823529%,99.607843%,81.176471%);fill-opacity:1;" d="M 21.582031 17.277344 C 21.855469 17.460938 21.96875 17.804688 21.882812 18.171875 C 21.824219 18.417969 21.644531 18.65625 21.484375 18.75 C 21.25 18.882812 21.042969 18.652344 20.984375 18.285156 C 20.945312 18.050781 20.964844 17.679688 21.054688 17.53125 C 21.171875 17.351562 21.386719 17.34375 21.582031 17.277344 Z M 21.582031 17.277344 "/>
<path style=" stroke:none;fill-rule:nonzero;fill:rgb(30.980392%,57.254902%,81.176471%);fill-opacity:1;" d="M 24.046875 31.839844 C 24.027344 31.761719 23.992188 31.632812 23.992188 31.5 C 23.988281 29.808594 23.992188 28.113281 24.003906 26.375 C 24.023438 26.742188 24.046875 27.15625 24.046875 27.566406 C 24.050781 28.976562 24.046875 30.382812 24.046875 31.839844 Z M 24.046875 31.839844 "/>
<path style=" stroke:none;fill-rule:nonzero;fill:rgb(30.980392%,57.254902%,81.176471%);fill-opacity:1;" d="M 13.878906 31.824219 C 13.859375 30.570312 13.855469 29.28125 13.859375 27.945312 C 13.882812 28.589844 13.902344 29.277344 13.90625 29.96875 C 13.914062 30.574219 13.898438 31.183594 13.878906 31.824219 Z M 13.878906 31.824219 "/>
<path style=" stroke:none;fill-rule:nonzero;fill:rgb(30.980392%,57.254902%,81.176471%);fill-opacity:1;" d="M 27.726562 8.007812 C 27.742188 9.039062 27.738281 10.105469 27.714844 11.203125 C 27.699219 10.171875 27.707031 9.105469 27.726562 8.007812 Z M 27.726562 8.007812 "/>
<path style=" stroke:none;fill-rule:nonzero;fill:rgb(30.980392%,57.254902%,81.176471%);fill-opacity:1;" d="M 12.84375 27.085938 C 12.863281 28.066406 12.863281 29.078125 12.863281 30.140625 C 12.839844 29.664062 12.8125 29.136719 12.808594 28.613281 C 12.800781 28.117188 12.820312 27.617188 12.84375 27.085938 Z M 12.84375 27.085938 "/>
<path style=" stroke:none;fill-rule:nonzero;fill:rgb(30.980392%,57.254902%,81.176471%);fill-opacity:1;" d="M 13.027344 21.765625 C 13.015625 21.015625 13.023438 20.234375 13.042969 19.414062 C 13.054688 20.164062 13.050781 20.949219 13.027344 21.765625 Z M 13.027344 21.765625 "/>
<path style=" stroke:none;fill-rule:nonzero;fill:rgb(30.980392%,57.254902%,81.176471%);fill-opacity:1;" d="M 15.558594 14.808594 C 15.371094 14.839844 15.160156 14.855469 14.917969 14.871094 C 15.105469 14.839844 15.320312 14.816406 15.558594 14.808594 Z M 15.558594 14.808594 "/>
<path style=" stroke:none;fill-rule:nonzero;fill:rgb(30.980392%,57.254902%,81.176471%);fill-opacity:1;" d="M 24.644531 33.308594 C 24.628906 33.089844 24.632812 32.84375 24.640625 32.550781 C 24.648438 32.765625 24.65625 33.023438 24.644531 33.308594 Z M 24.644531 33.308594 "/>
<path style=" stroke:none;fill-rule:nonzero;fill:rgb(30.980392%,57.254902%,81.176471%);fill-opacity:1;" d="M 9.390625 26.167969 C 9.5 26.136719 9.628906 26.125 9.785156 26.117188 C 9.679688 26.144531 9.542969 26.164062 9.390625 26.167969 Z M 9.390625 26.167969 "/>
<path style=" stroke:none;fill-rule:nonzero;fill:rgb(30.980392%,57.254902%,81.176471%);fill-opacity:1;" d="M 7.300781 29.816406 C 7.390625 29.792969 7.5 29.796875 7.632812 29.8125 C 7.542969 29.828125 7.429688 29.835938 7.300781 29.816406 Z M 7.300781 29.816406 "/>
<path style=" stroke:none;fill-rule:nonzero;fill:rgb(30.980392%,57.254902%,81.176471%);fill-opacity:1;" d="M 16.230469 14.839844 C 16.136719 14.863281 16.03125 14.867188 15.898438 14.855469 C 15.984375 14.835938 16.097656 14.828125 16.230469 14.839844 Z M 16.230469 14.839844 "/>
<path style=" stroke:none;fill-rule:nonzero;fill:rgb(30.980392%,57.254902%,81.176471%);fill-opacity:1;" d="M 14.519531 33.097656 C 14.503906 32.980469 14.5 32.835938 14.5 32.652344 C 14.515625 32.761719 14.527344 32.917969 14.519531 33.097656 Z M 14.519531 33.097656 "/>
<path style=" stroke:none;fill-rule:nonzero;fill:rgb(30.980392%,57.254902%,81.176471%);fill-opacity:1;" d="M 7.894531 29.839844 C 7.960938 29.808594 8.046875 29.796875 8.160156 29.785156 C 8.09375 29.8125 8.003906 29.835938 7.894531 29.839844 Z M 7.894531 29.839844 "/>
<path style=" stroke:none;fill-rule:nonzero;fill:rgb(30.980392%,57.254902%,81.176471%);fill-opacity:1;" d="M 9.105469 25.144531 C 9.125 25.265625 9.144531 25.429688 9.160156 25.636719 C 9.136719 25.515625 9.121094 25.355469 9.105469 25.144531 Z M 9.105469 25.144531 "/>
<path style=" stroke:none;fill-rule:nonzero;fill:rgb(30.980392%,57.254902%,81.176471%);fill-opacity:1;" d="M 19.671875 15.367188 C 19.609375 15.386719 19.523438 15.378906 19.421875 15.34375 C 19.484375 15.324219 19.570312 15.335938 19.671875 15.367188 Z M 19.671875 15.367188 "/>
<path style=" stroke:none;fill-rule:nonzero;fill:rgb(30.980392%,57.254902%,81.176471%);fill-opacity:1;" d="M 10.261719 26.09375 C 10.316406 26.0625 10.398438 26.035156 10.503906 26.011719 C 10.449219 26.042969 10.367188 26.070312 10.261719 26.09375 Z M 10.261719 26.09375 "/>
<path style=" stroke:none;fill-rule:nonzero;fill:rgb(30.980392%,57.254902%,81.176471%);fill-opacity:1;" d="M 17.859375 15.054688 C 17.804688 15.082031 17.738281 15.082031 17.644531 15.074219 C 17.695312 15.054688 17.769531 15.042969 17.859375 15.054688 Z M 17.859375 15.054688 "/>
<path style=" stroke:none;fill-rule:nonzero;fill:rgb(30.980392%,57.254902%,81.176471%);fill-opacity:1;" d="M 22.078125 15.785156 C 22.015625 15.804688 21.933594 15.800781 21.832031 15.765625 C 21.894531 15.746094 21.976562 15.753906 22.078125 15.785156 Z M 22.078125 15.785156 "/>
<path style=" stroke:none;fill-rule:nonzero;fill:rgb(30.980392%,57.254902%,81.176471%);fill-opacity:1;" d="M 13.285156 19.03125 C 13.324219 19.011719 13.386719 19.011719 13.460938 19.039062 C 13.417969 19.0625 13.359375 19.058594 13.285156 19.03125 Z M 13.285156 19.03125 "/>
<path style=" stroke:none;fill-rule:nonzero;fill:rgb(30.980392%,57.254902%,81.176471%);fill-opacity:1;" d="M 6.84375 29.710938 C 6.890625 29.691406 6.953125 29.699219 7.03125 29.734375 C 6.988281 29.753906 6.925781 29.742188 6.84375 29.710938 Z M 6.84375 29.710938 "/>
<path style=" stroke:none;fill-rule:nonzero;fill:rgb(30.980392%,57.254902%,81.176471%);fill-opacity:1;" d="M 10.320312 27.050781 C 10.289062 27.082031 10.238281 27.109375 10.164062 27.132812 C 10.195312 27.101562 10.246094 27.078125 10.320312 27.050781 Z M 10.320312 27.050781 "/>
<path style=" stroke:none;fill-rule:nonzero;fill:rgb(30.980392%,57.254902%,81.176471%);fill-opacity:1;" d="M 18.960938 15.265625 C 18.917969 15.277344 18.859375 15.269531 18.78125 15.238281 C 18.824219 15.222656 18.882812 15.230469 18.960938 15.265625 Z M 18.960938 15.265625 "/>
<path style=" stroke:none;fill-rule:nonzero;fill:rgb(30.980392%,57.254902%,81.176471%);fill-opacity:1;" d="M 13.761719 15.042969 C 13.726562 15.070312 13.679688 15.082031 13.609375 15.085938 C 13.640625 15.0625 13.695312 15.042969 13.761719 15.042969 Z M 13.761719 15.042969 "/>
<path style=" stroke:none;fill-rule:nonzero;fill:rgb(30.980392%,57.254902%,81.176471%);fill-opacity:1;" d="M 17.210938 14.953125 C 17.175781 14.976562 17.128906 14.976562 17.058594 14.964844 C 17.089844 14.945312 17.144531 14.9375 17.210938 14.953125 Z M 17.210938 14.953125 "/>
<path style=" stroke:none;fill-rule:nonzero;fill:rgb(30.980392%,57.254902%,81.176471%);fill-opacity:1;" d="M 23.167969 31.90625 C 23.183594 31.957031 23.191406 32.03125 23.195312 32.144531 C 23.179688 32.097656 23.167969 32.015625 23.167969 31.90625 Z M 23.167969 31.90625 "/>
<path style=" stroke:none;fill-rule:nonzero;fill:rgb(30.980392%,57.254902%,81.176471%);fill-opacity:1;" d="M 13.003906 31.976562 C 13.023438 32.03125 13.042969 32.121094 13.058594 32.25 C 13.035156 32.195312 13.019531 32.105469 13.003906 31.976562 Z M 13.003906 31.976562 "/>
<path style=" stroke:none;fill-rule:nonzero;fill:rgb(30.980392%,57.254902%,81.176471%);fill-opacity:1;" d="M 29.988281 18.238281 C 30.027344 18.21875 30.09375 18.195312 30.175781 18.199219 C 30.132812 18.230469 30.074219 18.234375 29.988281 18.238281 Z M 29.988281 18.238281 "/>
<path style=" stroke:none;fill-rule:nonzero;fill:rgb(30.980392%,57.254902%,81.176471%);fill-opacity:1;" d="M 20.265625 15.476562 C 20.230469 15.503906 20.183594 15.503906 20.113281 15.496094 C 20.144531 15.476562 20.199219 15.464844 20.265625 15.476562 Z M 20.265625 15.476562 "/>
<path style=" stroke:none;fill-rule:nonzero;fill:rgb(30.980392%,57.254902%,81.176471%);fill-opacity:1;" d="M 12.9375 31.253906 C 12.957031 31.277344 12.972656 31.332031 12.988281 31.414062 C 12.972656 31.394531 12.953125 31.339844 12.9375 31.253906 Z M 12.9375 31.253906 "/>
<path style=" stroke:none;fill-rule:nonzero;fill:rgb(30.980392%,57.254902%,81.176471%);fill-opacity:1;" d="M 23.082031 31.136719 C 23.097656 31.160156 23.117188 31.21875 23.128906 31.308594 C 23.113281 31.285156 23.097656 31.226562 23.082031 31.136719 Z M 23.082031 31.136719 "/>
<path style=" stroke:none;fill-rule:nonzero;fill:rgb(30.980392%,57.254902%,81.176471%);fill-opacity:1;" d="M 20.714844 15.574219 C 20.691406 15.585938 20.652344 15.578125 20.601562 15.550781 C 20.625 15.535156 20.664062 15.542969 20.714844 15.574219 Z M 20.714844 15.574219 "/>
<path style=" stroke:none;fill-rule:nonzero;fill:rgb(30.980392%,57.254902%,81.176471%);fill-opacity:1;" d="M 11.09375 26.882812 C 11.082031 26.910156 11.054688 26.921875 11.007812 26.929688 C 11.019531 26.90625 11.050781 26.886719 11.09375 26.882812 Z M 11.09375 26.882812 "/>
<path style=" stroke:none;fill-rule:nonzero;fill:rgb(30.980392%,57.254902%,81.176471%);fill-opacity:1;" d="M 11.378906 26.832031 C 11.367188 26.84375 11.339844 26.835938 11.324219 26.828125 C 11.332031 26.800781 11.355469 26.777344 11.375 26.757812 C 11.378906 26.777344 11.382812 26.796875 11.378906 26.832031 Z M 11.378906 26.832031 "/>
<path style=" stroke:none;fill-rule:nonzero;fill:rgb(30.980392%,57.254902%,81.176471%);fill-opacity:1;" d="M 30.4375 18.285156 C 30.464844 18.269531 30.503906 18.28125 30.558594 18.3125 C 30.53125 18.324219 30.492188 18.316406 30.4375 18.285156 Z M 30.4375 18.285156 "/>
<path style=" stroke:none;fill-rule:nonzero;fill:rgb(30.980392%,57.254902%,81.176471%);fill-opacity:1;" d="M 31.542969 18.597656 C 31.570312 18.582031 31.613281 18.589844 31.675781 18.621094 C 31.648438 18.640625 31.605469 18.628906 31.542969 18.597656 Z M 31.542969 18.597656 "/>
<path style=" stroke:none;fill-rule:nonzero;fill:rgb(30.980392%,57.254902%,81.176471%);fill-opacity:1;" d="M 14.242188 14.898438 C 14.226562 14.929688 14.1875 14.953125 14.128906 14.976562 C 14.144531 14.945312 14.183594 14.921875 14.242188 14.898438 Z M 14.242188 14.898438 "/>
<path style=" stroke:none;fill-rule:nonzero;fill:rgb(30.980392%,57.254902%,81.176471%);fill-opacity:1;" d="M 10.710938 26.996094 C 10.71875 27.007812 10.691406 27.03125 10.675781 27.027344 C 10.671875 26.992188 10.683594 26.980469 10.710938 26.996094 Z M 10.710938 26.996094 "/>
<path style=" stroke:none;fill-rule:nonzero;fill:rgb(30.980392%,57.254902%,81.176471%);fill-opacity:1;" d="M 22.984375 25.910156 C 22.992188 25.898438 23.003906 25.949219 23 25.972656 C 22.976562 25.980469 22.96875 25.957031 22.984375 25.910156 Z M 22.984375 25.910156 "/>
<path style=" stroke:none;fill-rule:nonzero;fill:rgb(30.196078%,57.254902%,81.568627%);fill-opacity:1;" d="M 16.488281 15.519531 C 16.59375 15.640625 16.699219 15.738281 16.75 15.886719 C 16.933594 16.425781 17.171875 16.621094 17.527344 16.40625 C 17.742188 16.277344 17.839844 16.460938 17.976562 16.644531 C 18.117188 16.839844 18.113281 17.023438 18.058594 17.28125 C 17.9375 17.820312 18.046875 18.28125 18.378906 18.511719 C 18.570312 18.640625 18.59375 18.835938 18.59375 19.117188 C 18.597656 19.410156 18.558594 19.589844 18.375 19.722656 C 18.050781 19.957031 17.941406 20.40625 18.070312 20.957031 C 18.136719 21.253906 18.089844 21.425781 17.960938 21.636719 C 17.824219 21.863281 17.707031 21.941406 17.511719 21.816406 C 17.210938 21.621094 16.910156 21.824219 16.773438 22.300781 C 16.695312 22.582031 16.585938 22.664062 16.398438 22.667969 C 16.203125 22.667969 16.082031 22.585938 15.996094 22.28125 C 15.867188 21.824219 15.578125 21.644531 15.289062 21.796875 C 15.121094 21.886719 14.984375 21.949219 14.828125 21.6875 C 14.675781 21.433594 14.644531 21.230469 14.714844 20.914062 C 14.832031 20.386719 14.71875 19.964844 14.390625 19.726562 C 14.214844 19.597656 14.160156 19.429688 14.164062 19.128906 C 14.164062 18.835938 14.203125 18.660156 14.382812 18.527344 C 14.726562 18.273438 14.828125 17.839844 14.703125 17.257812 C 14.648438 16.996094 14.640625 16.773438 14.800781 16.640625 C 14.933594 16.53125 15.089844 16.378906 15.214844 16.421875 C 15.621094 16.554688 15.859375 16.457031 16.015625 15.863281 C 16.117188 15.492188 16.273438 15.503906 16.488281 15.519531 M 15.9375 18.082031 C 15.558594 18.664062 15.496094 19.246094 15.746094 19.839844 C 15.949219 20.328125 16.394531 20.507812 16.726562 20.242188 C 17.105469 19.9375 17.265625 19.222656 17.09375 18.605469 C 16.902344 17.917969 16.472656 17.703125 15.9375 18.082031 Z M 15.9375 18.082031 "/>
<path style=" stroke:none;fill-rule:nonzero;fill:rgb(30.980392%,57.647059%,81.568627%);fill-opacity:1;" d="M 19.21875 20.140625 C 19.398438 20.054688 19.59375 20.027344 19.691406 19.859375 C 19.875 19.542969 20.058594 19.484375 20.1875 19.84375 C 20.304688 20.164062 20.449219 20.234375 20.667969 20.148438 C 20.910156 20.058594 21.011719 20.304688 21.007812 20.699219 C 21.007812 20.949219 21.082031 21.253906 21.191406 21.433594 C 21.355469 21.714844 21.390625 22.011719 21.1875 22.21875 C 21 22.410156 20.964844 22.65625 21 22.976562 C 21.042969 23.386719 20.914062 23.605469 20.675781 23.519531 C 20.460938 23.4375 20.308594 23.519531 20.1875 23.835938 C 20.050781 24.1875 19.894531 24.132812 19.703125 23.828125 C 19.59375 23.648438 19.402344 23.519531 19.246094 23.519531 C 18.984375 23.519531 18.859375 23.394531 18.902344 23.003906 C 18.941406 22.664062 18.902344 22.402344 18.707031 22.199219 C 18.515625 22 18.550781 21.703125 18.699219 21.441406 C 18.808594 21.253906 18.914062 20.945312 18.898438 20.714844 C 18.867188 20.285156 18.957031 20.144531 19.21875 20.140625 M 20.078125 22.597656 C 20.191406 22.355469 20.367188 22.136719 20.40625 21.863281 C 20.433594 21.667969 20.3125 21.277344 20.199219 21.207031 C 20.039062 21.105469 19.777344 21.113281 19.648438 21.265625 C 19.535156 21.40625 19.484375 21.828125 19.515625 22.089844 C 19.558594 22.472656 19.773438 22.65625 20.078125 22.597656 Z M 20.078125 22.597656 "/>
<path style=" stroke:none;fill-rule:nonzero;fill:rgb(31.764706%,58.039216%,81.176471%);fill-opacity:1;" d="M 30.683594 14.683594 C 30.304688 14.933594 30.019531 14.78125 29.917969 14.308594 C 29.820312 13.859375 29.992188 13.332031 30.296875 13.300781 C 30.460938 13.285156 30.683594 13.4375 30.789062 13.636719 C 30.96875 13.96875 30.894531 14.355469 30.683594 14.683594 Z M 30.683594 14.683594 "/>
<path style=" stroke:none;fill-rule:nonzero;fill:rgb(99.215686%,99.607843%,80.784314%);fill-opacity:1;" d="M 15.957031 18.0625 C 16.472656 17.703125 16.902344 17.917969 17.09375 18.605469 C 17.265625 19.222656 17.105469 19.9375 16.726562 20.242188 C 16.394531 20.507812 15.949219 20.328125 15.746094 19.839844 C 15.496094 19.246094 15.558594 18.664062 15.957031 18.0625 Z M 15.957031 18.0625 "/>
<path style=" stroke:none;fill-rule:nonzero;fill:rgb(98.823529%,99.607843%,80.784314%);fill-opacity:1;" d="M 20.050781 22.613281 C 19.773438 22.65625 19.558594 22.472656 19.515625 22.089844 C 19.484375 21.828125 19.535156 21.40625 19.648438 21.265625 C 19.777344 21.113281 20.039062 21.105469 20.199219 21.207031 C 20.3125 21.277344 20.433594 21.667969 20.40625 21.863281 C 20.367188 22.136719 20.191406 22.355469 20.050781 22.613281 Z M 20.050781 22.613281 "/>
</g>
</svg>
